<?xml version="1.0" encoding="UTF-8" standalone="no"?>
<!DOCTYPE svg PUBLIC "-//W3C//DTD SVG 1.1//EN"
 "http://www.w3.org/Graphics/SVG/1.1/DTD/svg11.dtd">
<!-- Generated by graphviz version 3.0.0 (20220315.2325)
 -->
<!-- Title: snakemake_dag Pages: 1 -->
<svg width="1264pt" height="990pt"
 viewBox="0.00 0.00 1264.00 990.00" xmlns="http://www.w3.org/2000/svg" xmlns:xlink="http://www.w3.org/1999/xlink">
<g id="graph0" class="graph" transform="scale(1 1) rotate(0) translate(4 986)">
<title>snakemake_dag</title>
<polygon fill="white" stroke="transparent" points="-4,4 -4,-986 1260,-986 1260,4 -4,4"/>
<!-- 0 -->
<g id="node1" class="node">
<title>0</title>
<path fill="none" stroke="#567bd8" stroke-width="2" d="M389,-41C389,-41 315,-41 315,-41 309,-41 303,-35 303,-29 303,-29 303,-12 303,-12 303,-6 309,0 315,0 315,0 389,0 389,0 395,0 401,-6 401,-12 401,-12 401,-29 401,-29 401,-35 395,-41 389,-41"/>
<text text-anchor="middle" x="352" y="-29" font-family="sans" font-size="10.00">plot_summary</text>
<text text-anchor="middle" x="352" y="-18" font-family="sans" font-size="10.00">ext: svg</text>
<text text-anchor="middle" x="352" y="-7" font-family="sans" font-size="10.00">summary: energy</text>
</g>
<!-- 1 -->
<g id="node2" class="node">
<title>1</title>
<path fill="none" stroke="#56d86b" stroke-width="2" d="M385,-113C385,-113 319,-113 319,-113 313,-113 307,-107 307,-101 307,-101 307,-89 307,-89 307,-83 313,-77 319,-77 319,-77 385,-77 385,-77 391,-77 397,-83 397,-89 397,-89 397,-101 397,-101 397,-107 391,-113 385,-113"/>
<text text-anchor="middle" x="352" y="-98" font-family="sans" font-size="10.00">make_summary</text>
<text text-anchor="middle" x="352" y="-87" font-family="sans" font-size="10.00">country: DE</text>
</g>
<!-- 1&#45;&gt;0 -->
<g id="edge1" class="edge">
<title>1&#45;&gt;0</title>
<path fill="none" stroke="grey" stroke-width="2" d="M352,-76.82C352,-69.2 352,-60 352,-51.32"/>
<polygon fill="grey" stroke="grey" stroke-width="2" points="355.5,-51.12 352,-41.12 348.5,-51.12 355.5,-51.12"/>
</g>
<!-- 2 -->
<g id="node3" class="node">
<title>2</title>
<path fill="none" stroke="#59d856" stroke-width="2" d="M382,-185C382,-185 322,-185 322,-185 316,-185 310,-179 310,-173 310,-173 310,-161 310,-161 310,-155 316,-149 322,-149 322,-149 382,-149 382,-149 388,-149 394,-155 394,-161 394,-161 394,-173 394,-173 394,-179 388,-185 382,-185"/>
<text text-anchor="middle" x="352" y="-164.5" font-family="sans" font-size="10.00">solve_network</text>
</g>
<!-- 2&#45;&gt;1 -->
<g id="edge2" class="edge">
<title>2&#45;&gt;1</title>
<path fill="none" stroke="grey" stroke-width="2" d="M352,-148.7C352,-140.98 352,-131.71 352,-123.11"/>
<polygon fill="grey" stroke="grey" stroke-width="2" points="355.5,-123.1 352,-113.1 348.5,-123.1 355.5,-123.1"/>
</g>
<!-- 3 -->
<g id="node4" class="node">
<title>3</title>
<path fill="none" stroke="#56d8a9" stroke-width="2" d="M388.5,-262C388.5,-262 315.5,-262 315.5,-262 309.5,-262 303.5,-256 303.5,-250 303.5,-250 303.5,-233 303.5,-233 303.5,-227 309.5,-221 315.5,-221 315.5,-221 388.5,-221 388.5,-221 394.5,-221 400.5,-227 400.5,-233 400.5,-233 400.5,-250 400.5,-250 400.5,-256 394.5,-262 388.5,-262"/>
<text text-anchor="middle" x="352" y="-250" font-family="sans" font-size="10.00">prepare_network</text>
<text text-anchor="middle" x="352" y="-239" font-family="sans" font-size="10.00">ll: copt</text>
<text text-anchor="middle" x="352" y="-228" font-family="sans" font-size="10.00">opts: Co2L&#45;24H</text>
</g>
<!-- 3&#45;&gt;2 -->
<g id="edge3" class="edge">
<title>3&#45;&gt;2</title>
<path fill="none" stroke="grey" stroke-width="2" d="M352,-220.69C352,-212.91 352,-203.84 352,-195.45"/>
<polygon fill="grey" stroke="grey" stroke-width="2" points="355.5,-195.32 352,-185.32 348.5,-195.32 355.5,-195.32"/>
</g>
<!-- 4 -->
<g id="node5" class="node">
<title>4</title>
<path fill="none" stroke="#56d8b9" stroke-width="2" d="M402,-334C402,-334 302,-334 302,-334 296,-334 290,-328 290,-322 290,-322 290,-310 290,-310 290,-304 296,-298 302,-298 302,-298 402,-298 402,-298 408,-298 414,-304 414,-310 414,-310 414,-322 414,-322 414,-328 408,-334 402,-334"/>
<text text-anchor="middle" x="352" y="-313.5" font-family="sans" font-size="10.00">add_extra_components</text>
</g>
<!-- 4&#45;&gt;3 -->
<g id="edge4" class="edge">
<title>4&#45;&gt;3</title>
<path fill="none" stroke="grey" stroke-width="2" d="M352,-297.82C352,-290.2 352,-281 352,-272.32"/>
<polygon fill="grey" stroke="grey" stroke-width="2" points="355.5,-272.12 352,-262.12 348.5,-272.12 355.5,-272.12"/>
</g>
<!-- 5 -->
<g id="node6" class="node">
<title>5</title>
<path fill="none" stroke="#d8bc56" stroke-width="2" d="M386,-406C386,-406 318,-406 318,-406 312,-406 306,-400 306,-394 306,-394 306,-382 306,-382 306,-376 312,-370 318,-370 318,-370 386,-370 386,-370 392,-370 398,-376 398,-382 398,-382 398,-394 398,-394 398,-400 392,-406 386,-406"/>
<text text-anchor="middle" x="352" y="-391" font-family="sans" font-size="10.00">cluster_network</text>
<text text-anchor="middle" x="352" y="-380" font-family="sans" font-size="10.00">clusters: 256</text>
</g>
<!-- 5&#45;&gt;4 -->
<g id="edge5" class="edge">
<title>5&#45;&gt;4</title>
<path fill="none" stroke="grey" stroke-width="2" d="M352,-369.7C352,-361.98 352,-352.71 352,-344.11"/>
<polygon fill="grey" stroke="grey" stroke-width="2" points="355.5,-344.1 352,-334.1 348.5,-344.1 355.5,-344.1"/>
</g>
<!-- 6 -->
<g id="node7" class="node">
<title>6</title>
<path fill="none" stroke="#566bd8" stroke-width="2" stroke-dasharray="5,2" d="M387.5,-478C387.5,-478 316.5,-478 316.5,-478 310.5,-478 304.5,-472 304.5,-466 304.5,-466 304.5,-454 304.5,-454 304.5,-448 310.5,-442 316.5,-442 316.5,-442 387.5,-442 387.5,-442 393.5,-442 399.5,-448 399.5,-454 399.5,-454 399.5,-466 399.5,-466 399.5,-472 393.5,-478 387.5,-478"/>
<text text-anchor="middle" x="352" y="-463" font-family="sans" font-size="10.00">simplify_network</text>
<text text-anchor="middle" x="352" y="-452" font-family="sans" font-size="10.00">simpl: </text>
</g>
<!-- 6&#45;&gt;5 -->
<g id="edge6" class="edge">
<title>6&#45;&gt;5</title>
<path fill="none" stroke="grey" stroke-width="2" d="M352,-441.7C352,-433.98 352,-424.71 352,-416.11"/>
<polygon fill="grey" stroke="grey" stroke-width="2" points="355.5,-416.1 352,-406.1 348.5,-416.1 355.5,-416.1"/>
</g>
<!-- 7 -->
<g id="node8" class="node">
<title>7</title>
<path fill="none" stroke="#56d892" stroke-width="2" stroke-dasharray="5,2" d="M695.5,-550C695.5,-550 636.5,-550 636.5,-550 630.5,-550 624.5,-544 624.5,-538 624.5,-538 624.5,-526 624.5,-526 624.5,-520 630.5,-514 636.5,-514 636.5,-514 695.5,-514 695.5,-514 701.5,-514 707.5,-520 707.5,-526 707.5,-526 707.5,-538 707.5,-538 707.5,-544 701.5,-550 695.5,-550"/>
<text text-anchor="middle" x="666" y="-529.5" font-family="sans" font-size="10.00">add_electricity</text>
</g>
<!-- 7&#45;&gt;6 -->
<g id="edge7" class="edge">
<title>7&#45;&gt;6</title>
<path fill="none" stroke="grey" stroke-width="2" d="M624.3,-521.7C569.15,-509.41 471.69,-487.68 409.56,-473.83"/>
<polygon fill="grey" stroke="grey" stroke-width="2" points="410.04,-470.35 399.52,-471.59 408.52,-477.19 410.04,-470.35"/>
</g>
<!-- 8 -->
<g id="node9" class="node">
<title>8</title>
<path fill="none" stroke="#b6d856" stroke-width="2" stroke-dasharray="5,2" d="M804,-838C804,-838 746,-838 746,-838 740,-838 734,-832 734,-826 734,-826 734,-814 734,-814 734,-808 740,-802 746,-802 746,-802 804,-802 804,-802 810,-802 816,-808 816,-814 816,-814 816,-826 816,-826 816,-832 810,-838 804,-838"/>
<text text-anchor="middle" x="775" y="-817.5" font-family="sans" font-size="10.00">base_network</text>
</g>
<!-- 8&#45;&gt;7 -->
<g id="edge9" class="edge">
<title>8&#45;&gt;7</title>
<path fill="none" stroke="grey" stroke-width="2" d="M795.74,-801.81C842.25,-761.22 946.53,-657.47 890,-586 868.91,-559.33 776.89,-544.7 717.56,-537.89"/>
<polygon fill="grey" stroke="grey" stroke-width="2" points="717.93,-534.41 707.61,-536.78 717.16,-541.36 717.93,-534.41"/>
</g>
<!-- 11 -->
<g id="node12" class="node">
<title>11</title>
<path fill="none" stroke="#56b9d8" stroke-width="2" stroke-dasharray="5,2" d="M343.5,-766C343.5,-766 268.5,-766 268.5,-766 262.5,-766 256.5,-760 256.5,-754 256.5,-754 256.5,-742 256.5,-742 256.5,-736 262.5,-730 268.5,-730 268.5,-730 343.5,-730 343.5,-730 349.5,-730 355.5,-736 355.5,-742 355.5,-742 355.5,-754 355.5,-754 355.5,-760 349.5,-766 343.5,-766"/>
<text text-anchor="middle" x="306" y="-745.5" font-family="sans" font-size="10.00">build_bus_regions</text>
</g>
<!-- 8&#45;&gt;11 -->
<g id="edge22" class="edge">
<title>8&#45;&gt;11</title>
<path fill="none" stroke="grey" stroke-width="2" d="M733.9,-815.4C660.41,-808.56 501.83,-792.02 370,-766 368.55,-765.71 367.09,-765.42 365.62,-765.1"/>
<polygon fill="grey" stroke="grey" stroke-width="2" points="366.34,-761.68 355.82,-762.9 364.8,-768.51 366.34,-761.68"/>
</g>
<!-- 12 -->
<g id="node13" class="node">
<title>12</title>
<path fill="none" stroke="#d86e56" stroke-width="2" stroke-dasharray="5,2" d="M1009.5,-766C1009.5,-766 932.5,-766 932.5,-766 926.5,-766 920.5,-760 920.5,-754 920.5,-754 920.5,-742 920.5,-742 920.5,-736 926.5,-730 932.5,-730 932.5,-730 1009.5,-730 1009.5,-730 1015.5,-730 1021.5,-736 1021.5,-742 1021.5,-742 1021.5,-754 1021.5,-754 1021.5,-760 1015.5,-766 1009.5,-766"/>
<text text-anchor="middle" x="971" y="-745.5" font-family="sans" font-size="10.00">build_powerplants</text>
</g>
<!-- 8&#45;&gt;12 -->
<g id="edge23" class="edge">
<title>8&#45;&gt;12</title>
<path fill="none" stroke="grey" stroke-width="2" d="M816.09,-804.33C844.37,-794.23 882.33,-780.67 913.59,-769.5"/>
<polygon fill="grey" stroke="grey" stroke-width="2" points="914.82,-772.78 923.06,-766.12 912.46,-766.19 914.82,-772.78"/>
</g>
<!-- 15 -->
<g id="node16" class="node">
<title>15</title>
<path fill="none" stroke="#8fd856" stroke-width="2" stroke-dasharray="5,2" d="M868.5,-622C868.5,-622 761.5,-622 761.5,-622 755.5,-622 749.5,-616 749.5,-610 749.5,-610 749.5,-598 749.5,-598 749.5,-592 755.5,-586 761.5,-586 761.5,-586 868.5,-586 868.5,-586 874.5,-586 880.5,-592 880.5,-598 880.5,-598 880.5,-610 880.5,-610 880.5,-616 874.5,-622 868.5,-622"/>
<text text-anchor="middle" x="815" y="-607" font-family="sans" font-size="10.00">build_renewable_profiles</text>
<text text-anchor="middle" x="815" y="-596" font-family="sans" font-size="10.00">technology: onwind</text>
</g>
<!-- 8&#45;&gt;15 -->
<g id="edge25" class="edge">
<title>8&#45;&gt;15</title>
<path fill="none" stroke="grey" stroke-width="2" d="M781.42,-801.54C784.98,-791.3 789.23,-778.05 792,-766 802.69,-719.52 809.29,-664.29 812.54,-632.09"/>
<polygon fill="grey" stroke="grey" stroke-width="2" points="816.03,-632.39 813.51,-622.09 809.06,-631.71 816.03,-632.39"/>
</g>
<!-- 18 -->
<g id="node19" class="node">
<title>18</title>
<path fill="none" stroke="#8fd856" stroke-width="2" stroke-dasharray="5,2" d="M225.5,-622C225.5,-622 118.5,-622 118.5,-622 112.5,-622 106.5,-616 106.5,-610 106.5,-610 106.5,-598 106.5,-598 106.5,-592 112.5,-586 118.5,-586 118.5,-586 225.5,-586 225.5,-586 231.5,-586 237.5,-592 237.5,-598 237.5,-598 237.5,-610 237.5,-610 237.5,-616 231.5,-622 225.5,-622"/>
<text text-anchor="middle" x="172" y="-607" font-family="sans" font-size="10.00">build_renewable_profiles</text>
<text text-anchor="middle" x="172" y="-596" font-family="sans" font-size="10.00">technology: offwind&#45;ac</text>
</g>
<!-- 8&#45;&gt;18 -->
<g id="edge32" class="edge">
<title>8&#45;&gt;18</title>
<path fill="none" stroke="grey" stroke-width="2" d="M733.8,-817.19C616.47,-811.73 286.44,-794 247,-766 202.38,-734.32 183.58,-669.18 176.25,-632.21"/>
<polygon fill="grey" stroke="grey" stroke-width="2" points="179.65,-631.34 174.39,-622.14 172.76,-632.61 179.65,-631.34"/>
</g>
<!-- 19 -->
<g id="node20" class="node">
<title>19</title>
<path fill="none" stroke="#8fd856" stroke-width="2" stroke-dasharray="5,2" d="M719.5,-622C719.5,-622 612.5,-622 612.5,-622 606.5,-622 600.5,-616 600.5,-610 600.5,-610 600.5,-598 600.5,-598 600.5,-592 606.5,-586 612.5,-586 612.5,-586 719.5,-586 719.5,-586 725.5,-586 731.5,-592 731.5,-598 731.5,-598 731.5,-610 731.5,-610 731.5,-616 725.5,-622 719.5,-622"/>
<text text-anchor="middle" x="666" y="-607" font-family="sans" font-size="10.00">build_renewable_profiles</text>
<text text-anchor="middle" x="666" y="-596" font-family="sans" font-size="10.00">technology: offwind&#45;dc</text>
</g>
<!-- 8&#45;&gt;19 -->
<g id="edge38" class="edge">
<title>8&#45;&gt;19</title>
<path fill="none" stroke="grey" stroke-width="2" d="M771.54,-801.94C764.78,-771.33 747.83,-705.79 718,-658 711.51,-647.6 702.66,-637.61 694.1,-629.16"/>
<polygon fill="grey" stroke="grey" stroke-width="2" points="696.39,-626.5 686.72,-622.16 691.57,-631.58 696.39,-626.5"/>
</g>
<!-- 20 -->
<g id="node21" class="node">
<title>20</title>
<path fill="none" stroke="#8fd856" stroke-width="2" stroke-dasharray="5,2" d="M413.5,-622C413.5,-622 306.5,-622 306.5,-622 300.5,-622 294.5,-616 294.5,-610 294.5,-610 294.5,-598 294.5,-598 294.5,-592 300.5,-586 306.5,-586 306.5,-586 413.5,-586 413.5,-586 419.5,-586 425.5,-592 425.5,-598 425.5,-598 425.5,-610 425.5,-610 425.5,-616 419.5,-622 413.5,-622"/>
<text text-anchor="middle" x="360" y="-607" font-family="sans" font-size="10.00">build_renewable_profiles</text>
<text text-anchor="middle" x="360" y="-596" font-family="sans" font-size="10.00">technology: solar</text>
</g>
<!-- 8&#45;&gt;20 -->
<g id="edge44" class="edge">
<title>8&#45;&gt;20</title>
<path fill="none" stroke="grey" stroke-width="2" d="M733.94,-812.81C638.56,-797.51 406.61,-754.7 361,-694 347.92,-676.59 348.94,-651.39 352.49,-632.24"/>
<polygon fill="grey" stroke="grey" stroke-width="2" points="355.95,-632.83 354.66,-622.31 349.11,-631.34 355.95,-632.83"/>
</g>
<!-- 9 -->
<g id="node10" class="node">
<title>9</title>
<path fill="none" stroke="#d8a456" stroke-width="2" stroke-dasharray="5,2" d="M613,-910C613,-910 561,-910 561,-910 555,-910 549,-904 549,-898 549,-898 549,-886 549,-886 549,-880 555,-874 561,-874 561,-874 613,-874 613,-874 619,-874 625,-880 625,-886 625,-886 625,-898 625,-898 625,-904 619,-910 613,-910"/>
<text text-anchor="middle" x="587" y="-889.5" font-family="sans" font-size="10.00">build_shapes</text>
</g>
<!-- 9&#45;&gt;7 -->
<g id="edge14" class="edge">
<title>9&#45;&gt;7</title>
<path fill="none" stroke="grey" stroke-width="2" d="M548.73,-889.57C466.41,-885.85 275.67,-873.54 223,-838 119.21,-767.95 12.66,-678.56 97,-586 131.48,-548.16 480.27,-536.88 614.1,-533.94"/>
<polygon fill="grey" stroke="grey" stroke-width="2" points="614.57,-537.43 624.49,-533.71 614.42,-530.43 614.57,-537.43"/>
</g>
<!-- 9&#45;&gt;8 -->
<g id="edge19" class="edge">
<title>9&#45;&gt;8</title>
<path fill="none" stroke="grey" stroke-width="2" d="M625.04,-876.83C653.63,-866.19 693.07,-851.5 724.33,-839.87"/>
<polygon fill="grey" stroke="grey" stroke-width="2" points="725.6,-843.13 733.75,-836.36 723.16,-836.57 725.6,-843.13"/>
</g>
<!-- 9&#45;&gt;11 -->
<g id="edge21" class="edge">
<title>9&#45;&gt;11</title>
<path fill="none" stroke="grey" stroke-width="2" d="M553.1,-873.87C501.94,-848.02 405.03,-799.04 348.98,-770.72"/>
<polygon fill="grey" stroke="grey" stroke-width="2" points="350.52,-767.58 340.02,-766.19 347.36,-773.82 350.52,-767.58"/>
</g>
<!-- 9&#45;&gt;15 -->
<g id="edge28" class="edge">
<title>9&#45;&gt;15</title>
<path fill="none" stroke="grey" stroke-width="2" d="M625.13,-888.17C685.89,-882.78 800.37,-868.71 825,-838 873.02,-778.11 844.43,-679.14 826.36,-631.81"/>
<polygon fill="grey" stroke="grey" stroke-width="2" points="829.52,-630.28 822.59,-622.27 823.01,-632.85 829.52,-630.28"/>
</g>
<!-- 9&#45;&gt;18 -->
<g id="edge35" class="edge">
<title>9&#45;&gt;18</title>
<path fill="none" stroke="grey" stroke-width="2" d="M548.75,-887.74C475.95,-881.03 320.6,-864.06 274,-838 207.08,-800.58 197.85,-768.32 179,-694 173.83,-673.62 172.18,-649.86 171.76,-632.01"/>
<polygon fill="grey" stroke="grey" stroke-width="2" points="175.26,-631.97 171.64,-622.01 168.26,-632.05 175.26,-631.97"/>
</g>
<!-- 9&#45;&gt;19 -->
<g id="edge41" class="edge">
<title>9&#45;&gt;19</title>
<path fill="none" stroke="grey" stroke-width="2" d="M596.91,-873.82C615.5,-840.48 654.99,-764.11 669,-694 673.08,-673.57 672.03,-649.98 670.13,-632.22"/>
<polygon fill="grey" stroke="grey" stroke-width="2" points="673.6,-631.75 668.9,-622.25 666.65,-632.6 673.6,-631.75"/>
</g>
<!-- 9&#45;&gt;20 -->
<g id="edge47" class="edge">
<title>9&#45;&gt;20</title>
<path fill="none" stroke="grey" stroke-width="2" d="M548.82,-890.57C474.87,-887.39 313.57,-868.43 247,-766 214.38,-715.8 279.43,-658.85 323.68,-627.94"/>
<polygon fill="grey" stroke="grey" stroke-width="2" points="325.93,-630.64 332.21,-622.11 321.98,-624.86 325.93,-630.64"/>
</g>
<!-- 10 -->
<g id="node11" class="node">
<title>10</title>
<path fill="none" stroke="#56d87b" stroke-width="2" stroke-dasharray="5,2" d="M999,-982C999,-982 913,-982 913,-982 907,-982 901,-976 901,-970 901,-970 901,-958 901,-958 901,-952 907,-946 913,-946 913,-946 999,-946 999,-946 1005,-946 1011,-952 1011,-958 1011,-958 1011,-970 1011,-970 1011,-976 1005,-982 999,-982"/>
<text text-anchor="middle" x="956" y="-961.5" font-family="sans" font-size="10.00">retrieve_databundle</text>
</g>
<!-- 10&#45;&gt;7 -->
<g id="edge12" class="edge">
<title>10&#45;&gt;7</title>
<path fill="none" stroke="grey" stroke-width="2" d="M1011.06,-950.99C1036.78,-943.01 1066.24,-930.18 1087,-910 1117.97,-879.9 1126,-864.19 1126,-821 1126,-821 1126,-821 1126,-675 1126,-590.34 837.9,-550.74 717.7,-537.91"/>
<polygon fill="grey" stroke="grey" stroke-width="2" points="717.94,-534.41 707.63,-536.85 717.21,-541.38 717.94,-534.41"/>
</g>
<!-- 10&#45;&gt;9 -->
<g id="edge20" class="edge">
<title>10&#45;&gt;9</title>
<path fill="none" stroke="grey" stroke-width="2" d="M900.76,-952.52C828.66,-938.84 703.65,-915.13 635.21,-902.14"/>
<polygon fill="grey" stroke="grey" stroke-width="2" points="635.61,-898.66 625.13,-900.23 634.3,-905.54 635.61,-898.66"/>
</g>
<!-- 10&#45;&gt;15 -->
<g id="edge26" class="edge">
<title>10&#45;&gt;15</title>
<path fill="none" stroke="grey" stroke-width="2" d="M1011.16,-949.31C1031.37,-941.34 1052.18,-928.97 1064,-910 1106.31,-842.1 1106,-798.09 1064,-730 1026.43,-669.1 949.12,-636.84 890.56,-620.46"/>
<polygon fill="grey" stroke="grey" stroke-width="2" points="891.16,-617 880.59,-617.77 889.34,-623.76 891.16,-617"/>
</g>
<!-- 10&#45;&gt;18 -->
<g id="edge33" class="edge">
<title>10&#45;&gt;18</title>
<path fill="none" stroke="grey" stroke-width="2" d="M900.82,-960.67C697.23,-951.34 0,-912.71 0,-821 0,-821 0,-821 0,-747 0,-687.16 62.68,-647.82 112.36,-626.04"/>
<polygon fill="grey" stroke="grey" stroke-width="2" points="113.95,-629.17 121.79,-622.04 111.22,-622.72 113.95,-629.17"/>
</g>
<!-- 10&#45;&gt;19 -->
<g id="edge39" class="edge">
<title>10&#45;&gt;19</title>
<path fill="none" stroke="grey" stroke-width="2" d="M971.01,-945.9C1004.98,-905.05 1081.03,-800.02 1031,-730 1013.43,-705.41 839.2,-653.36 737.95,-624.79"/>
<polygon fill="grey" stroke="grey" stroke-width="2" points="738.66,-621.36 728.08,-622.02 736.76,-628.09 738.66,-621.36"/>
</g>
<!-- 10&#45;&gt;20 -->
<g id="edge45" class="edge">
<title>10&#45;&gt;20</title>
<path fill="none" stroke="grey" stroke-width="2" d="M900.82,-959.47C756.38,-949.24 371.59,-915.21 274,-838 210.8,-787.99 201.75,-721.01 252,-658 262.78,-644.49 277.87,-634.17 293.37,-626.4"/>
<polygon fill="grey" stroke="grey" stroke-width="2" points="294.94,-629.53 302.51,-622.11 291.97,-623.19 294.94,-629.53"/>
</g>
<!-- 11&#45;&gt;6 -->
<g id="edge8" class="edge">
<title>11&#45;&gt;6</title>
<path fill="none" stroke="grey" stroke-width="2" d="M256.34,-733.31C181.28,-709.96 52.17,-657.9 97,-586 140,-517.04 233.33,-485.06 294.36,-471.03"/>
<polygon fill="grey" stroke="grey" stroke-width="2" points="295.23,-474.42 304.24,-468.85 293.72,-467.59 295.23,-474.42"/>
</g>
<!-- 11&#45;&gt;7 -->
<g id="edge10" class="edge">
<title>11&#45;&gt;7</title>
<path fill="none" stroke="grey" stroke-width="2" d="M296.06,-729.5C279.04,-696.97 249.46,-626.82 285,-586 327.05,-537.69 519.98,-532.02 614.08,-532.21"/>
<polygon fill="grey" stroke="grey" stroke-width="2" points="614.22,-535.71 624.24,-532.26 614.25,-528.71 614.22,-535.71"/>
</g>
<!-- 11&#45;&gt;15 -->
<g id="edge29" class="edge">
<title>11&#45;&gt;15</title>
<path fill="none" stroke="grey" stroke-width="2" d="M355.66,-746C427.02,-743.18 561.76,-732.69 669,-694 712.27,-678.39 756.66,-649.06 784.95,-628.35"/>
<polygon fill="grey" stroke="grey" stroke-width="2" points="787.26,-631 793.19,-622.22 783.08,-625.38 787.26,-631"/>
</g>
<!-- 17 -->
<g id="node18" class="node">
<title>17</title>
<path fill="none" stroke="#d87d56" stroke-width="2" stroke-dasharray="5,2" d="M626,-694C626,-694 520,-694 520,-694 514,-694 508,-688 508,-682 508,-682 508,-670 508,-670 508,-664 514,-658 520,-658 520,-658 626,-658 626,-658 632,-658 638,-664 638,-670 638,-670 638,-682 638,-682 638,-688 632,-694 626,-694"/>
<text text-anchor="middle" x="573" y="-679" font-family="sans" font-size="10.00">build_cutout</text>
<text text-anchor="middle" x="573" y="-668" font-family="sans" font-size="10.00">cutout: de&#45;03&#45;2013&#45;era5</text>
</g>
<!-- 11&#45;&gt;17 -->
<g id="edge31" class="edge">
<title>11&#45;&gt;17</title>
<path fill="none" stroke="grey" stroke-width="2" d="M355.59,-734C395.64,-723.5 452.62,-708.56 498.2,-696.61"/>
<polygon fill="grey" stroke="grey" stroke-width="2" points="499.25,-699.95 508.04,-694.03 497.47,-693.18 499.25,-699.95"/>
</g>
<!-- 11&#45;&gt;18 -->
<g id="edge36" class="edge">
<title>11&#45;&gt;18</title>
<path fill="none" stroke="grey" stroke-width="2" d="M287.72,-729.61C277.13,-719.4 263.63,-706.15 252,-694 231.69,-672.78 209.42,-647.86 193.55,-629.8"/>
<polygon fill="grey" stroke="grey" stroke-width="2" points="195.95,-627.23 186.73,-622.02 190.69,-631.85 195.95,-627.23"/>
</g>
<!-- 11&#45;&gt;19 -->
<g id="edge42" class="edge">
<title>11&#45;&gt;19</title>
<path fill="none" stroke="grey" stroke-width="2" d="M355.73,-745.99C440.04,-743.22 605.91,-732.84 647,-694 663.54,-678.36 667.48,-652.13 667.77,-632.18"/>
<polygon fill="grey" stroke="grey" stroke-width="2" points="671.27,-632.08 667.62,-622.14 664.27,-632.19 671.27,-632.08"/>
</g>
<!-- 11&#45;&gt;20 -->
<g id="edge48" class="edge">
<title>11&#45;&gt;20</title>
<path fill="none" stroke="grey" stroke-width="2" d="M308.67,-729.79C311.87,-711.5 318.07,-681.97 328,-658 331.81,-648.81 337.04,-639.34 342.18,-630.99"/>
<polygon fill="grey" stroke="grey" stroke-width="2" points="345.2,-632.75 347.64,-622.44 339.3,-628.99 345.2,-632.75"/>
</g>
<!-- 12&#45;&gt;7 -->
<g id="edge11" class="edge">
<title>12&#45;&gt;7</title>
<path fill="none" stroke="grey" stroke-width="2" d="M974.06,-729.93C978.87,-697.19 984.06,-625.34 946,-586 915.14,-554.1 789.99,-540.88 717.89,-535.83"/>
<polygon fill="grey" stroke="grey" stroke-width="2" points="717.86,-532.32 707.65,-535.14 717.39,-539.3 717.86,-532.32"/>
</g>
<!-- 13 -->
<g id="node14" class="node">
<title>13</title>
<path fill="none" stroke="#80d856" stroke-width="2" stroke-dasharray="5,2" d="M1233,-622C1233,-622 1169,-622 1169,-622 1163,-622 1157,-616 1157,-610 1157,-610 1157,-598 1157,-598 1157,-592 1163,-586 1169,-586 1169,-586 1233,-586 1233,-586 1239,-586 1245,-592 1245,-598 1245,-598 1245,-610 1245,-610 1245,-616 1239,-622 1233,-622"/>
<text text-anchor="middle" x="1201" y="-601.5" font-family="sans" font-size="10.00">build_load_data</text>
</g>
<!-- 13&#45;&gt;7 -->
<g id="edge13" class="edge">
<title>13&#45;&gt;7</title>
<path fill="none" stroke="grey" stroke-width="2" d="M1156.89,-589.81C1151.24,-588.38 1145.5,-587.07 1140,-586 988.07,-556.53 805.33,-541.84 717.75,-536.06"/>
<polygon fill="grey" stroke="grey" stroke-width="2" points="717.75,-532.55 707.55,-535.4 717.3,-539.54 717.75,-532.55"/>
</g>
<!-- 14 -->
<g id="node15" class="node">
<title>14</title>
<path fill="none" stroke="#56d0d8" stroke-width="2" stroke-dasharray="5,2" d="M1244,-694C1244,-694 1166,-694 1166,-694 1160,-694 1154,-688 1154,-682 1154,-682 1154,-670 1154,-670 1154,-664 1160,-658 1166,-658 1166,-658 1244,-658 1244,-658 1250,-658 1256,-664 1256,-670 1256,-670 1256,-682 1256,-682 1256,-688 1250,-694 1244,-694"/>
<text text-anchor="middle" x="1205" y="-673.5" font-family="sans" font-size="10.00">retrieve_load_data</text>
</g>
<!-- 14&#45;&gt;13 -->
<g id="edge24" class="edge">
<title>14&#45;&gt;13</title>
<path fill="none" stroke="grey" stroke-width="2" d="M1204.01,-657.7C1203.57,-649.98 1203.04,-640.71 1202.55,-632.11"/>
<polygon fill="grey" stroke="grey" stroke-width="2" points="1206.04,-631.89 1201.98,-622.1 1199.05,-632.29 1206.04,-631.89"/>
</g>
<!-- 15&#45;&gt;7 -->
<g id="edge15" class="edge">
<title>15&#45;&gt;7</title>
<path fill="none" stroke="grey" stroke-width="2" d="M778.55,-585.88C758.36,-576.39 733.08,-564.51 711.59,-554.42"/>
<polygon fill="grey" stroke="grey" stroke-width="2" points="712.87,-551.15 702.33,-550.07 709.89,-557.49 712.87,-551.15"/>
</g>
<!-- 16 -->
<g id="node17" class="node">
<title>16</title>
<path fill="none" stroke="#ced856" stroke-width="2" stroke-dasharray="5,2" d="M478,-694C478,-694 382,-694 382,-694 376,-694 370,-688 370,-682 370,-682 370,-670 370,-670 370,-664 376,-658 382,-658 382,-658 478,-658 478,-658 484,-658 490,-664 490,-670 490,-670 490,-682 490,-682 490,-688 484,-694 478,-694"/>
<text text-anchor="middle" x="430" y="-673.5" font-family="sans" font-size="10.00">retrieve_natura_raster</text>
</g>
<!-- 16&#45;&gt;15 -->
<g id="edge27" class="edge">
<title>16&#45;&gt;15</title>
<path fill="none" stroke="grey" stroke-width="2" d="M490.14,-659.83C493.13,-659.19 496.09,-658.57 499,-658 602.56,-637.59 632.42,-641.91 739.39,-622.23"/>
<polygon fill="grey" stroke="grey" stroke-width="2" points="740.1,-625.65 749.29,-620.38 738.82,-618.77 740.1,-625.65"/>
</g>
<!-- 16&#45;&gt;18 -->
<g id="edge34" class="edge">
<title>16&#45;&gt;18</title>
<path fill="none" stroke="grey" stroke-width="2" d="M369.84,-658.68C332.5,-648.55 284.28,-635.46 244.8,-624.75"/>
<polygon fill="grey" stroke="grey" stroke-width="2" points="245.53,-621.32 234.96,-622.08 243.69,-628.08 245.53,-621.32"/>
</g>
<!-- 16&#45;&gt;19 -->
<g id="edge40" class="edge">
<title>16&#45;&gt;19</title>
<path fill="none" stroke="grey" stroke-width="2" d="M487.43,-657.97C520.98,-648.01 563.49,-635.41 598.61,-624.99"/>
<polygon fill="grey" stroke="grey" stroke-width="2" points="599.72,-628.31 608.31,-622.11 597.73,-621.6 599.72,-628.31"/>
</g>
<!-- 16&#45;&gt;20 -->
<g id="edge46" class="edge">
<title>16&#45;&gt;20</title>
<path fill="none" stroke="grey" stroke-width="2" d="M412.7,-657.7C404.14,-649.14 393.66,-638.66 384.3,-629.3"/>
<polygon fill="grey" stroke="grey" stroke-width="2" points="386.65,-626.7 377.1,-622.1 381.7,-631.65 386.65,-626.7"/>
</g>
<!-- 17&#45;&gt;15 -->
<g id="edge30" class="edge">
<title>17&#45;&gt;15</title>
<path fill="none" stroke="grey" stroke-width="2" d="M631.89,-657.97C666.29,-648.01 709.88,-635.41 745.9,-624.99"/>
<polygon fill="grey" stroke="grey" stroke-width="2" points="747.21,-628.25 755.85,-622.11 745.27,-621.53 747.21,-628.25"/>
</g>
<!-- 17&#45;&gt;18 -->
<g id="edge37" class="edge">
<title>17&#45;&gt;18</title>
<path fill="none" stroke="grey" stroke-width="2" d="M507.68,-659.75C504.75,-659.14 501.85,-658.56 499,-658 452.25,-648.85 329.07,-629.35 247.95,-616.72"/>
<polygon fill="grey" stroke="grey" stroke-width="2" points="248.2,-613.22 237.79,-615.14 247.13,-620.14 248.2,-613.22"/>
</g>
<!-- 17&#45;&gt;19 -->
<g id="edge43" class="edge">
<title>17&#45;&gt;19</title>
<path fill="none" stroke="grey" stroke-width="2" d="M595.99,-657.7C607.81,-648.8 622.39,-637.82 635.18,-628.2"/>
<polygon fill="grey" stroke="grey" stroke-width="2" points="637.39,-630.91 643.28,-622.1 633.18,-625.32 637.39,-630.91"/>
</g>
<!-- 17&#45;&gt;20 -->
<g id="edge49" class="edge">
<title>17&#45;&gt;20</title>
<path fill="none" stroke="grey" stroke-width="2" d="M521.17,-657.97C491.15,-648.1 453.18,-635.62 421.63,-625.25"/>
<polygon fill="grey" stroke="grey" stroke-width="2" points="422.66,-621.91 412.07,-622.11 420.47,-628.56 422.66,-621.91"/>
</g>
<!-- 18&#45;&gt;7 -->
<g id="edge16" class="edge">
<title>18&#45;&gt;7</title>
<path fill="none" stroke="grey" stroke-width="2" d="M237.84,-588.56C242.62,-587.65 247.38,-586.79 252,-586 381.73,-563.95 535.73,-546.51 614.29,-538.24"/>
<polygon fill="grey" stroke="grey" stroke-width="2" points="614.82,-541.7 624.41,-537.18 614.1,-534.74 614.82,-541.7"/>
</g>
<!-- 19&#45;&gt;7 -->
<g id="edge17" class="edge">
<title>19&#45;&gt;7</title>
<path fill="none" stroke="grey" stroke-width="2" d="M666,-585.7C666,-577.98 666,-568.71 666,-560.11"/>
<polygon fill="grey" stroke="grey" stroke-width="2" points="669.5,-560.1 666,-550.1 662.5,-560.1 669.5,-560.1"/>
</g>
<!-- 20&#45;&gt;7 -->
<g id="edge18" class="edge">
<title>20&#45;&gt;7</title>
<path fill="none" stroke="grey" stroke-width="2" d="M425.64,-587.98C482.11,-575.07 562.46,-556.69 614.42,-544.8"/>
<polygon fill="grey" stroke="grey" stroke-width="2" points="615.45,-548.15 624.41,-542.51 613.89,-541.33 615.45,-548.15"/>
</g>
</g>
</svg>
