<?xml version="1.0" encoding="UTF-8" standalone="no"?>
<!DOCTYPE svg PUBLIC "-//W3C//DTD SVG 1.1//EN"
 "http://www.w3.org/Graphics/SVG/1.1/DTD/svg11.dtd">
<!-- Generated by graphviz version 3.0.0 (20220315.2325)
 -->
<!-- Title: snakemake_dag Pages: 1 -->
<svg width="1264pt" height="918pt"
 viewBox="0.00 0.00 1264.00 918.00" xmlns="http://www.w3.org/2000/svg" xmlns:xlink="http://www.w3.org/1999/xlink">
<g id="graph0" class="graph" transform="scale(1 1) rotate(0) translate(4 914)">
<title>snakemake_dag</title>
<polygon fill="white" stroke="transparent" points="-4,4 -4,-914 1260,-914 1260,4 -4,4"/>
<!-- 0 -->
<g id="node1" class="node">
<title>0</title>
<path fill="none" stroke="#56a9d8" stroke-width="2" stroke-dasharray="5,2" d="M379,-41C379,-41 325,-41 325,-41 319,-41 313,-35 313,-29 313,-29 313,-12 313,-12 313,-6 319,0 325,0 325,0 379,0 379,0 385,0 391,-6 391,-12 391,-12 391,-29 391,-29 391,-35 385,-41 379,-41"/>
<text text-anchor="middle" x="352" y="-29" font-family="sans" font-size="10.00">plot_network</text>
<text text-anchor="middle" x="352" y="-18" font-family="sans" font-size="10.00">attr: p_nom</text>
<text text-anchor="middle" x="352" y="-7" font-family="sans" font-size="10.00">ext: pdf</text>
</g>
<!-- 1 -->
<g id="node2" class="node">
<title>1</title>
<path fill="none" stroke="#566bd8" stroke-width="2" stroke-dasharray="5,2" d="M382,-113C382,-113 322,-113 322,-113 316,-113 310,-107 310,-101 310,-101 310,-89 310,-89 310,-83 316,-77 322,-77 322,-77 382,-77 382,-77 388,-77 394,-83 394,-89 394,-89 394,-101 394,-101 394,-107 388,-113 382,-113"/>
<text text-anchor="middle" x="352" y="-92.5" font-family="sans" font-size="10.00">solve_network</text>
</g>
<!-- 1&#45;&gt;0 -->
<g id="edge1" class="edge">
<title>1&#45;&gt;0</title>
<path fill="none" stroke="grey" stroke-width="2" d="M352,-76.82C352,-69.2 352,-60 352,-51.32"/>
<polygon fill="grey" stroke="grey" stroke-width="2" points="355.5,-51.12 352,-41.12 348.5,-51.12 355.5,-51.12"/>
</g>
<!-- 2 -->
<g id="node3" class="node">
<title>2</title>
<path fill="none" stroke="#d89556" stroke-width="2" stroke-dasharray="5,2" d="M388.5,-190C388.5,-190 315.5,-190 315.5,-190 309.5,-190 303.5,-184 303.5,-178 303.5,-178 303.5,-161 303.5,-161 303.5,-155 309.5,-149 315.5,-149 315.5,-149 388.5,-149 388.5,-149 394.5,-149 400.5,-155 400.5,-161 400.5,-161 400.5,-178 400.5,-178 400.5,-184 394.5,-190 388.5,-190"/>
<text text-anchor="middle" x="352" y="-178" font-family="sans" font-size="10.00">prepare_network</text>
<text text-anchor="middle" x="352" y="-167" font-family="sans" font-size="10.00">ll: copt</text>
<text text-anchor="middle" x="352" y="-156" font-family="sans" font-size="10.00">opts: Co2L&#45;24H</text>
</g>
<!-- 2&#45;&gt;1 -->
<g id="edge2" class="edge">
<title>2&#45;&gt;1</title>
<path fill="none" stroke="grey" stroke-width="2" d="M352,-148.69C352,-140.91 352,-131.84 352,-123.45"/>
<polygon fill="grey" stroke="grey" stroke-width="2" points="355.5,-123.32 352,-113.32 348.5,-123.32 355.5,-123.32"/>
</g>
<!-- 3 -->
<g id="node4" class="node">
<title>3</title>
<path fill="none" stroke="#d8a456" stroke-width="2" stroke-dasharray="5,2" d="M402,-262C402,-262 302,-262 302,-262 296,-262 290,-256 290,-250 290,-250 290,-238 290,-238 290,-232 296,-226 302,-226 302,-226 402,-226 402,-226 408,-226 414,-232 414,-238 414,-238 414,-250 414,-250 414,-256 408,-262 402,-262"/>
<text text-anchor="middle" x="352" y="-241.5" font-family="sans" font-size="10.00">add_extra_components</text>
</g>
<!-- 3&#45;&gt;2 -->
<g id="edge3" class="edge">
<title>3&#45;&gt;2</title>
<path fill="none" stroke="grey" stroke-width="2" d="M352,-225.82C352,-218.2 352,-209 352,-200.32"/>
<polygon fill="grey" stroke="grey" stroke-width="2" points="355.5,-200.12 352,-190.12 348.5,-200.12 355.5,-200.12"/>
</g>
<!-- 4 -->
<g id="node5" class="node">
<title>4</title>
<path fill="none" stroke="#80d856" stroke-width="2" stroke-dasharray="5,2" d="M386,-334C386,-334 318,-334 318,-334 312,-334 306,-328 306,-322 306,-322 306,-310 306,-310 306,-304 312,-298 318,-298 318,-298 386,-298 386,-298 392,-298 398,-304 398,-310 398,-310 398,-322 398,-322 398,-328 392,-334 386,-334"/>
<text text-anchor="middle" x="352" y="-319" font-family="sans" font-size="10.00">cluster_network</text>
<text text-anchor="middle" x="352" y="-308" font-family="sans" font-size="10.00">clusters: 256</text>
</g>
<!-- 4&#45;&gt;3 -->
<g id="edge4" class="edge">
<title>4&#45;&gt;3</title>
<path fill="none" stroke="grey" stroke-width="2" d="M352,-297.7C352,-289.98 352,-280.71 352,-272.11"/>
<polygon fill="grey" stroke="grey" stroke-width="2" points="355.5,-272.1 352,-262.1 348.5,-272.1 355.5,-272.1"/>
</g>
<!-- 5 -->
<g id="node6" class="node">
<title>5</title>
<path fill="none" stroke="#b6d856" stroke-width="2" stroke-dasharray="5,2" d="M387.5,-406C387.5,-406 316.5,-406 316.5,-406 310.5,-406 304.5,-400 304.5,-394 304.5,-394 304.5,-382 304.5,-382 304.5,-376 310.5,-370 316.5,-370 316.5,-370 387.5,-370 387.5,-370 393.5,-370 399.5,-376 399.5,-382 399.5,-382 399.5,-394 399.5,-394 399.5,-400 393.5,-406 387.5,-406"/>
<text text-anchor="middle" x="352" y="-391" font-family="sans" font-size="10.00">simplify_network</text>
<text text-anchor="middle" x="352" y="-380" font-family="sans" font-size="10.00">simpl: </text>
</g>
<!-- 5&#45;&gt;4 -->
<g id="edge5" class="edge">
<title>5&#45;&gt;4</title>
<path fill="none" stroke="grey" stroke-width="2" d="M352,-369.7C352,-361.98 352,-352.71 352,-344.11"/>
<polygon fill="grey" stroke="grey" stroke-width="2" points="355.5,-344.1 352,-334.1 348.5,-344.1 355.5,-344.1"/>
</g>
<!-- 6 -->
<g id="node7" class="node">
<title>6</title>
<path fill="none" stroke="#56d8a9" stroke-width="2" stroke-dasharray="5,2" d="M695.5,-478C695.5,-478 636.5,-478 636.5,-478 630.5,-478 624.5,-472 624.5,-466 624.5,-466 624.5,-454 624.5,-454 624.5,-448 630.5,-442 636.5,-442 636.5,-442 695.5,-442 695.5,-442 701.5,-442 707.5,-448 707.5,-454 707.5,-454 707.5,-466 707.5,-466 707.5,-472 701.5,-478 695.5,-478"/>
<text text-anchor="middle" x="666" y="-457.5" font-family="sans" font-size="10.00">add_electricity</text>
</g>
<!-- 6&#45;&gt;5 -->
<g id="edge6" class="edge">
<title>6&#45;&gt;5</title>
<path fill="none" stroke="grey" stroke-width="2" d="M624.3,-449.7C569.15,-437.41 471.69,-415.68 409.56,-401.83"/>
<polygon fill="grey" stroke="grey" stroke-width="2" points="410.04,-398.35 399.52,-399.59 408.52,-405.19 410.04,-398.35"/>
</g>
<!-- 7 -->
<g id="node8" class="node">
<title>7</title>
<path fill="none" stroke="#d8bc56" stroke-width="2" stroke-dasharray="5,2" d="M804,-766C804,-766 746,-766 746,-766 740,-766 734,-760 734,-754 734,-754 734,-742 734,-742 734,-736 740,-730 746,-730 746,-730 804,-730 804,-730 810,-730 816,-736 816,-742 816,-742 816,-754 816,-754 816,-760 810,-766 804,-766"/>
<text text-anchor="middle" x="775" y="-745.5" font-family="sans" font-size="10.00">base_network</text>
</g>
<!-- 7&#45;&gt;6 -->
<g id="edge8" class="edge">
<title>7&#45;&gt;6</title>
<path fill="none" stroke="grey" stroke-width="2" d="M795.74,-729.81C842.25,-689.22 946.53,-585.47 890,-514 868.91,-487.33 776.89,-472.7 717.56,-465.89"/>
<polygon fill="grey" stroke="grey" stroke-width="2" points="717.93,-462.41 707.61,-464.78 717.16,-469.36 717.93,-462.41"/>
</g>
<!-- 10 -->
<g id="node11" class="node">
<title>10</title>
<path fill="none" stroke="#56d86b" stroke-width="2" stroke-dasharray="5,2" d="M343.5,-694C343.5,-694 268.5,-694 268.5,-694 262.5,-694 256.5,-688 256.5,-682 256.5,-682 256.5,-670 256.5,-670 256.5,-664 262.5,-658 268.5,-658 268.5,-658 343.5,-658 343.5,-658 349.5,-658 355.5,-664 355.5,-670 355.5,-670 355.5,-682 355.5,-682 355.5,-688 349.5,-694 343.5,-694"/>
<text text-anchor="middle" x="306" y="-673.5" font-family="sans" font-size="10.00">build_bus_regions</text>
</g>
<!-- 7&#45;&gt;10 -->
<g id="edge21" class="edge">
<title>7&#45;&gt;10</title>
<path fill="none" stroke="grey" stroke-width="2" d="M733.9,-743.4C660.41,-736.56 501.83,-720.02 370,-694 368.55,-693.71 367.09,-693.42 365.62,-693.1"/>
<polygon fill="grey" stroke="grey" stroke-width="2" points="366.34,-689.68 355.82,-690.9 364.8,-696.51 366.34,-689.68"/>
</g>
<!-- 11 -->
<g id="node12" class="node">
<title>11</title>
<path fill="none" stroke="#d85656" stroke-width="2" stroke-dasharray="5,2" d="M1009.5,-694C1009.5,-694 932.5,-694 932.5,-694 926.5,-694 920.5,-688 920.5,-682 920.5,-682 920.5,-670 920.5,-670 920.5,-664 926.5,-658 932.5,-658 932.5,-658 1009.5,-658 1009.5,-658 1015.5,-658 1021.5,-664 1021.5,-670 1021.5,-670 1021.5,-682 1021.5,-682 1021.5,-688 1015.5,-694 1009.5,-694"/>
<text text-anchor="middle" x="971" y="-673.5" font-family="sans" font-size="10.00">build_powerplants</text>
</g>
<!-- 7&#45;&gt;11 -->
<g id="edge22" class="edge">
<title>7&#45;&gt;11</title>
<path fill="none" stroke="grey" stroke-width="2" d="M816.09,-732.33C844.37,-722.23 882.33,-708.67 913.59,-697.5"/>
<polygon fill="grey" stroke="grey" stroke-width="2" points="914.82,-700.78 923.06,-694.12 912.46,-694.19 914.82,-700.78"/>
</g>
<!-- 14 -->
<g id="node15" class="node">
<title>14</title>
<path fill="none" stroke="#56b9d8" stroke-width="2" stroke-dasharray="5,2" d="M868.5,-550C868.5,-550 761.5,-550 761.5,-550 755.5,-550 749.5,-544 749.5,-538 749.5,-538 749.5,-526 749.5,-526 749.5,-520 755.5,-514 761.5,-514 761.5,-514 868.5,-514 868.5,-514 874.5,-514 880.5,-520 880.5,-526 880.5,-526 880.5,-538 880.5,-538 880.5,-544 874.5,-550 868.5,-550"/>
<text text-anchor="middle" x="815" y="-535" font-family="sans" font-size="10.00">build_renewable_profiles</text>
<text text-anchor="middle" x="815" y="-524" font-family="sans" font-size="10.00">technology: onwind</text>
</g>
<!-- 7&#45;&gt;14 -->
<g id="edge24" class="edge">
<title>7&#45;&gt;14</title>
<path fill="none" stroke="grey" stroke-width="2" d="M781.42,-729.54C784.98,-719.3 789.23,-706.05 792,-694 802.69,-647.52 809.29,-592.29 812.54,-560.09"/>
<polygon fill="grey" stroke="grey" stroke-width="2" points="816.03,-560.39 813.51,-550.09 809.06,-559.71 816.03,-560.39"/>
</g>
<!-- 17 -->
<g id="node18" class="node">
<title>17</title>
<path fill="none" stroke="#56b9d8" stroke-width="2" stroke-dasharray="5,2" d="M225.5,-550C225.5,-550 118.5,-550 118.5,-550 112.5,-550 106.5,-544 106.5,-538 106.5,-538 106.5,-526 106.5,-526 106.5,-520 112.5,-514 118.5,-514 118.5,-514 225.5,-514 225.5,-514 231.5,-514 237.5,-520 237.5,-526 237.5,-526 237.5,-538 237.5,-538 237.5,-544 231.5,-550 225.5,-550"/>
<text text-anchor="middle" x="172" y="-535" font-family="sans" font-size="10.00">build_renewable_profiles</text>
<text text-anchor="middle" x="172" y="-524" font-family="sans" font-size="10.00">technology: offwind&#45;ac</text>
</g>
<!-- 7&#45;&gt;17 -->
<g id="edge31" class="edge">
<title>7&#45;&gt;17</title>
<path fill="none" stroke="grey" stroke-width="2" d="M733.8,-745.19C616.47,-739.73 286.44,-722 247,-694 202.38,-662.32 183.58,-597.18 176.25,-560.21"/>
<polygon fill="grey" stroke="grey" stroke-width="2" points="179.65,-559.34 174.39,-550.14 172.76,-560.61 179.65,-559.34"/>
</g>
<!-- 18 -->
<g id="node19" class="node">
<title>18</title>
<path fill="none" stroke="#56b9d8" stroke-width="2" stroke-dasharray="5,2" d="M719.5,-550C719.5,-550 612.5,-550 612.5,-550 606.5,-550 600.5,-544 600.5,-538 600.5,-538 600.5,-526 600.5,-526 600.5,-520 606.5,-514 612.5,-514 612.5,-514 719.5,-514 719.5,-514 725.5,-514 731.5,-520 731.5,-526 731.5,-526 731.5,-538 731.5,-538 731.5,-544 725.5,-550 719.5,-550"/>
<text text-anchor="middle" x="666" y="-535" font-family="sans" font-size="10.00">build_renewable_profiles</text>
<text text-anchor="middle" x="666" y="-524" font-family="sans" font-size="10.00">technology: offwind&#45;dc</text>
</g>
<!-- 7&#45;&gt;18 -->
<g id="edge37" class="edge">
<title>7&#45;&gt;18</title>
<path fill="none" stroke="grey" stroke-width="2" d="M771.54,-729.94C764.78,-699.33 747.83,-633.79 718,-586 711.51,-575.6 702.66,-565.61 694.1,-557.16"/>
<polygon fill="grey" stroke="grey" stroke-width="2" points="696.39,-554.5 686.72,-550.16 691.57,-559.58 696.39,-554.5"/>
</g>
<!-- 19 -->
<g id="node20" class="node">
<title>19</title>
<path fill="none" stroke="#56b9d8" stroke-width="2" stroke-dasharray="5,2" d="M413.5,-550C413.5,-550 306.5,-550 306.5,-550 300.5,-550 294.5,-544 294.5,-538 294.5,-538 294.5,-526 294.5,-526 294.5,-520 300.5,-514 306.5,-514 306.5,-514 413.5,-514 413.5,-514 419.5,-514 425.5,-520 425.5,-526 425.5,-526 425.5,-538 425.5,-538 425.5,-544 419.5,-550 413.5,-550"/>
<text text-anchor="middle" x="360" y="-535" font-family="sans" font-size="10.00">build_renewable_profiles</text>
<text text-anchor="middle" x="360" y="-524" font-family="sans" font-size="10.00">technology: solar</text>
</g>
<!-- 7&#45;&gt;19 -->
<g id="edge43" class="edge">
<title>7&#45;&gt;19</title>
<path fill="none" stroke="grey" stroke-width="2" d="M733.94,-740.81C638.56,-725.51 406.61,-682.7 361,-622 347.92,-604.59 348.94,-579.39 352.49,-560.24"/>
<polygon fill="grey" stroke="grey" stroke-width="2" points="355.95,-560.83 354.66,-550.31 349.11,-559.34 355.95,-560.83"/>
</g>
<!-- 8 -->
<g id="node9" class="node">
<title>8</title>
<path fill="none" stroke="#68d856" stroke-width="2" stroke-dasharray="5,2" d="M613,-838C613,-838 561,-838 561,-838 555,-838 549,-832 549,-826 549,-826 549,-814 549,-814 549,-808 555,-802 561,-802 561,-802 613,-802 613,-802 619,-802 625,-808 625,-814 625,-814 625,-826 625,-826 625,-832 619,-838 613,-838"/>
<text text-anchor="middle" x="587" y="-817.5" font-family="sans" font-size="10.00">build_shapes</text>
</g>
<!-- 8&#45;&gt;6 -->
<g id="edge13" class="edge">
<title>8&#45;&gt;6</title>
<path fill="none" stroke="grey" stroke-width="2" d="M548.73,-817.57C466.41,-813.85 275.67,-801.54 223,-766 119.21,-695.95 12.66,-606.56 97,-514 131.48,-476.16 480.27,-464.88 614.1,-461.94"/>
<polygon fill="grey" stroke="grey" stroke-width="2" points="614.57,-465.43 624.49,-461.71 614.42,-458.43 614.57,-465.43"/>
</g>
<!-- 8&#45;&gt;7 -->
<g id="edge18" class="edge">
<title>8&#45;&gt;7</title>
<path fill="none" stroke="grey" stroke-width="2" d="M625.04,-804.83C653.63,-794.19 693.07,-779.5 724.33,-767.87"/>
<polygon fill="grey" stroke="grey" stroke-width="2" points="725.6,-771.13 733.75,-764.36 723.16,-764.57 725.6,-771.13"/>
</g>
<!-- 8&#45;&gt;10 -->
<g id="edge20" class="edge">
<title>8&#45;&gt;10</title>
<path fill="none" stroke="grey" stroke-width="2" d="M553.1,-801.87C501.94,-776.02 405.03,-727.04 348.98,-698.72"/>
<polygon fill="grey" stroke="grey" stroke-width="2" points="350.52,-695.58 340.02,-694.19 347.36,-701.82 350.52,-695.58"/>
</g>
<!-- 8&#45;&gt;14 -->
<g id="edge27" class="edge">
<title>8&#45;&gt;14</title>
<path fill="none" stroke="grey" stroke-width="2" d="M625.13,-816.17C685.89,-810.78 800.37,-796.71 825,-766 873.02,-706.11 844.43,-607.14 826.36,-559.81"/>
<polygon fill="grey" stroke="grey" stroke-width="2" points="829.52,-558.28 822.59,-550.27 823.01,-560.85 829.52,-558.28"/>
</g>
<!-- 8&#45;&gt;17 -->
<g id="edge34" class="edge">
<title>8&#45;&gt;17</title>
<path fill="none" stroke="grey" stroke-width="2" d="M548.75,-815.74C475.95,-809.03 320.6,-792.06 274,-766 207.08,-728.58 197.85,-696.32 179,-622 173.83,-601.62 172.18,-577.86 171.76,-560.01"/>
<polygon fill="grey" stroke="grey" stroke-width="2" points="175.26,-559.97 171.64,-550.01 168.26,-560.05 175.26,-559.97"/>
</g>
<!-- 8&#45;&gt;18 -->
<g id="edge40" class="edge">
<title>8&#45;&gt;18</title>
<path fill="none" stroke="grey" stroke-width="2" d="M596.91,-801.82C615.5,-768.48 654.99,-692.11 669,-622 673.08,-601.57 672.03,-577.98 670.13,-560.22"/>
<polygon fill="grey" stroke="grey" stroke-width="2" points="673.6,-559.75 668.9,-550.25 666.65,-560.6 673.6,-559.75"/>
</g>
<!-- 8&#45;&gt;19 -->
<g id="edge46" class="edge">
<title>8&#45;&gt;19</title>
<path fill="none" stroke="grey" stroke-width="2" d="M548.82,-818.57C474.87,-815.39 313.57,-796.43 247,-694 214.38,-643.8 279.43,-586.85 323.68,-555.94"/>
<polygon fill="grey" stroke="grey" stroke-width="2" points="325.93,-558.64 332.21,-550.11 321.98,-552.86 325.93,-558.64"/>
</g>
<!-- 9 -->
<g id="node10" class="node">
<title>9</title>
<path fill="none" stroke="#d86e56" stroke-width="2" stroke-dasharray="5,2" d="M999,-910C999,-910 913,-910 913,-910 907,-910 901,-904 901,-898 901,-898 901,-886 901,-886 901,-880 907,-874 913,-874 913,-874 999,-874 999,-874 1005,-874 1011,-880 1011,-886 1011,-886 1011,-898 1011,-898 1011,-904 1005,-910 999,-910"/>
<text text-anchor="middle" x="956" y="-889.5" font-family="sans" font-size="10.00">retrieve_databundle</text>
</g>
<!-- 9&#45;&gt;6 -->
<g id="edge11" class="edge">
<title>9&#45;&gt;6</title>
<path fill="none" stroke="grey" stroke-width="2" d="M1011.06,-878.99C1036.78,-871.01 1066.24,-858.18 1087,-838 1117.97,-807.9 1126,-792.19 1126,-749 1126,-749 1126,-749 1126,-603 1126,-518.34 837.9,-478.74 717.7,-465.91"/>
<polygon fill="grey" stroke="grey" stroke-width="2" points="717.94,-462.41 707.63,-464.85 717.21,-469.38 717.94,-462.41"/>
</g>
<!-- 9&#45;&gt;8 -->
<g id="edge19" class="edge">
<title>9&#45;&gt;8</title>
<path fill="none" stroke="grey" stroke-width="2" d="M900.76,-880.52C828.66,-866.84 703.65,-843.13 635.21,-830.14"/>
<polygon fill="grey" stroke="grey" stroke-width="2" points="635.61,-826.66 625.13,-828.23 634.3,-833.54 635.61,-826.66"/>
</g>
<!-- 9&#45;&gt;14 -->
<g id="edge25" class="edge">
<title>9&#45;&gt;14</title>
<path fill="none" stroke="grey" stroke-width="2" d="M1011.16,-877.31C1031.37,-869.34 1052.18,-856.97 1064,-838 1106.31,-770.1 1106,-726.09 1064,-658 1026.43,-597.1 949.12,-564.84 890.56,-548.46"/>
<polygon fill="grey" stroke="grey" stroke-width="2" points="891.16,-545 880.59,-545.77 889.34,-551.76 891.16,-545"/>
</g>
<!-- 9&#45;&gt;17 -->
<g id="edge32" class="edge">
<title>9&#45;&gt;17</title>
<path fill="none" stroke="grey" stroke-width="2" d="M900.82,-888.67C697.23,-879.34 0,-840.71 0,-749 0,-749 0,-749 0,-675 0,-615.16 62.68,-575.82 112.36,-554.04"/>
<polygon fill="grey" stroke="grey" stroke-width="2" points="113.95,-557.17 121.79,-550.04 111.22,-550.72 113.95,-557.17"/>
</g>
<!-- 9&#45;&gt;18 -->
<g id="edge38" class="edge">
<title>9&#45;&gt;18</title>
<path fill="none" stroke="grey" stroke-width="2" d="M971.01,-873.9C1004.98,-833.05 1081.03,-728.02 1031,-658 1013.43,-633.41 839.2,-581.36 737.95,-552.79"/>
<polygon fill="grey" stroke="grey" stroke-width="2" points="738.66,-549.36 728.08,-550.02 736.76,-556.09 738.66,-549.36"/>
</g>
<!-- 9&#45;&gt;19 -->
<g id="edge44" class="edge">
<title>9&#45;&gt;19</title>
<path fill="none" stroke="grey" stroke-width="2" d="M900.82,-887.47C756.38,-877.24 371.59,-843.21 274,-766 210.8,-715.99 201.75,-649.01 252,-586 262.78,-572.49 277.87,-562.17 293.37,-554.4"/>
<polygon fill="grey" stroke="grey" stroke-width="2" points="294.94,-557.53 302.51,-550.11 291.97,-551.19 294.94,-557.53"/>
</g>
<!-- 10&#45;&gt;5 -->
<g id="edge7" class="edge">
<title>10&#45;&gt;5</title>
<path fill="none" stroke="grey" stroke-width="2" d="M256.34,-661.31C181.28,-637.96 52.17,-585.9 97,-514 140,-445.04 233.33,-413.06 294.36,-399.03"/>
<polygon fill="grey" stroke="grey" stroke-width="2" points="295.23,-402.42 304.24,-396.85 293.72,-395.59 295.23,-402.42"/>
</g>
<!-- 10&#45;&gt;6 -->
<g id="edge9" class="edge">
<title>10&#45;&gt;6</title>
<path fill="none" stroke="grey" stroke-width="2" d="M296.06,-657.5C279.04,-624.97 249.46,-554.82 285,-514 327.05,-465.69 519.98,-460.02 614.08,-460.21"/>
<polygon fill="grey" stroke="grey" stroke-width="2" points="614.22,-463.71 624.24,-460.26 614.25,-456.71 614.22,-463.71"/>
</g>
<!-- 10&#45;&gt;14 -->
<g id="edge28" class="edge">
<title>10&#45;&gt;14</title>
<path fill="none" stroke="grey" stroke-width="2" d="M355.66,-674C427.02,-671.18 561.76,-660.69 669,-622 712.27,-606.39 756.66,-577.06 784.95,-556.35"/>
<polygon fill="grey" stroke="grey" stroke-width="2" points="787.26,-559 793.19,-550.22 783.08,-553.38 787.26,-559"/>
</g>
<!-- 16 -->
<g id="node17" class="node">
<title>16</title>
<path fill="none" stroke="#59d856" stroke-width="2" stroke-dasharray="5,2" d="M626,-622C626,-622 520,-622 520,-622 514,-622 508,-616 508,-610 508,-610 508,-598 508,-598 508,-592 514,-586 520,-586 520,-586 626,-586 626,-586 632,-586 638,-592 638,-598 638,-598 638,-610 638,-610 638,-616 632,-622 626,-622"/>
<text text-anchor="middle" x="573" y="-607" font-family="sans" font-size="10.00">build_cutout</text>
<text text-anchor="middle" x="573" y="-596" font-family="sans" font-size="10.00">cutout: de&#45;03&#45;2013&#45;era5</text>
</g>
<!-- 10&#45;&gt;16 -->
<g id="edge30" class="edge">
<title>10&#45;&gt;16</title>
<path fill="none" stroke="grey" stroke-width="2" d="M355.59,-662C395.64,-651.5 452.62,-636.56 498.2,-624.61"/>
<polygon fill="grey" stroke="grey" stroke-width="2" points="499.25,-627.95 508.04,-622.03 497.47,-621.18 499.25,-627.95"/>
</g>
<!-- 10&#45;&gt;17 -->
<g id="edge35" class="edge">
<title>10&#45;&gt;17</title>
<path fill="none" stroke="grey" stroke-width="2" d="M287.72,-657.61C277.13,-647.4 263.63,-634.15 252,-622 231.69,-600.78 209.42,-575.86 193.55,-557.8"/>
<polygon fill="grey" stroke="grey" stroke-width="2" points="195.95,-555.23 186.73,-550.02 190.69,-559.85 195.95,-555.23"/>
</g>
<!-- 10&#45;&gt;18 -->
<g id="edge41" class="edge">
<title>10&#45;&gt;18</title>
<path fill="none" stroke="grey" stroke-width="2" d="M355.73,-673.99C440.04,-671.22 605.91,-660.84 647,-622 663.54,-606.36 667.48,-580.13 667.77,-560.18"/>
<polygon fill="grey" stroke="grey" stroke-width="2" points="671.27,-560.08 667.62,-550.14 664.27,-560.19 671.27,-560.08"/>
</g>
<!-- 10&#45;&gt;19 -->
<g id="edge47" class="edge">
<title>10&#45;&gt;19</title>
<path fill="none" stroke="grey" stroke-width="2" d="M308.67,-657.79C311.87,-639.5 318.07,-609.97 328,-586 331.81,-576.81 337.04,-567.34 342.18,-558.99"/>
<polygon fill="grey" stroke="grey" stroke-width="2" points="345.2,-560.75 347.64,-550.44 339.3,-556.99 345.2,-560.75"/>
</g>
<!-- 11&#45;&gt;6 -->
<g id="edge10" class="edge">
<title>11&#45;&gt;6</title>
<path fill="none" stroke="grey" stroke-width="2" d="M974.06,-657.93C978.87,-625.19 984.06,-553.34 946,-514 915.14,-482.1 789.99,-468.88 717.89,-463.83"/>
<polygon fill="grey" stroke="grey" stroke-width="2" points="717.86,-460.32 707.65,-463.14 717.39,-467.3 717.86,-460.32"/>
</g>
<!-- 12 -->
<g id="node13" class="node">
<title>12</title>
<path fill="none" stroke="#d87d56" stroke-width="2" stroke-dasharray="5,2" d="M1233,-550C1233,-550 1169,-550 1169,-550 1163,-550 1157,-544 1157,-538 1157,-538 1157,-526 1157,-526 1157,-520 1163,-514 1169,-514 1169,-514 1233,-514 1233,-514 1239,-514 1245,-520 1245,-526 1245,-526 1245,-538 1245,-538 1245,-544 1239,-550 1233,-550"/>
<text text-anchor="middle" x="1201" y="-529.5" font-family="sans" font-size="10.00">build_load_data</text>
</g>
<!-- 12&#45;&gt;6 -->
<g id="edge12" class="edge">
<title>12&#45;&gt;6</title>
<path fill="none" stroke="grey" stroke-width="2" d="M1156.89,-517.81C1151.24,-516.38 1145.5,-515.07 1140,-514 988.07,-484.53 805.33,-469.84 717.75,-464.06"/>
<polygon fill="grey" stroke="grey" stroke-width="2" points="717.75,-460.55 707.55,-463.4 717.3,-467.54 717.75,-460.55"/>
</g>
<!-- 13 -->
<g id="node14" class="node">
<title>13</title>
<path fill="none" stroke="#8fd856" stroke-width="2" stroke-dasharray="5,2" d="M1244,-622C1244,-622 1166,-622 1166,-622 1160,-622 1154,-616 1154,-610 1154,-610 1154,-598 1154,-598 1154,-592 1160,-586 1166,-586 1166,-586 1244,-586 1244,-586 1250,-586 1256,-592 1256,-598 1256,-598 1256,-610 1256,-610 1256,-616 1250,-622 1244,-622"/>
<text text-anchor="middle" x="1205" y="-601.5" font-family="sans" font-size="10.00">retrieve_load_data</text>
</g>
<!-- 13&#45;&gt;12 -->
<g id="edge23" class="edge">
<title>13&#45;&gt;12</title>
<path fill="none" stroke="grey" stroke-width="2" d="M1204.01,-585.7C1203.57,-577.98 1203.04,-568.71 1202.55,-560.11"/>
<polygon fill="grey" stroke="grey" stroke-width="2" points="1206.04,-559.89 1201.98,-550.1 1199.05,-560.29 1206.04,-559.89"/>
</g>
<!-- 14&#45;&gt;6 -->
<g id="edge14" class="edge">
<title>14&#45;&gt;6</title>
<path fill="none" stroke="grey" stroke-width="2" d="M778.55,-513.88C758.36,-504.39 733.08,-492.51 711.59,-482.42"/>
<polygon fill="grey" stroke="grey" stroke-width="2" points="712.87,-479.15 702.33,-478.07 709.89,-485.49 712.87,-479.15"/>
</g>
<!-- 15 -->
<g id="node16" class="node">
<title>15</title>
<path fill="none" stroke="#d8cb56" stroke-width="2" stroke-dasharray="5,2" d="M478,-622C478,-622 382,-622 382,-622 376,-622 370,-616 370,-610 370,-610 370,-598 370,-598 370,-592 376,-586 382,-586 382,-586 478,-586 478,-586 484,-586 490,-592 490,-598 490,-598 490,-610 490,-610 490,-616 484,-622 478,-622"/>
<text text-anchor="middle" x="430" y="-601.5" font-family="sans" font-size="10.00">retrieve_natura_raster</text>
</g>
<!-- 15&#45;&gt;14 -->
<g id="edge26" class="edge">
<title>15&#45;&gt;14</title>
<path fill="none" stroke="grey" stroke-width="2" d="M490.14,-587.83C493.13,-587.19 496.09,-586.57 499,-586 602.56,-565.59 632.42,-569.91 739.39,-550.23"/>
<polygon fill="grey" stroke="grey" stroke-width="2" points="740.1,-553.65 749.29,-548.38 738.82,-546.77 740.1,-553.65"/>
</g>
<!-- 15&#45;&gt;17 -->
<g id="edge33" class="edge">
<title>15&#45;&gt;17</title>
<path fill="none" stroke="grey" stroke-width="2" d="M369.84,-586.68C332.5,-576.55 284.28,-563.46 244.8,-552.75"/>
<polygon fill="grey" stroke="grey" stroke-width="2" points="245.53,-549.32 234.96,-550.08 243.69,-556.08 245.53,-549.32"/>
</g>
<!-- 15&#45;&gt;18 -->
<g id="edge39" class="edge">
<title>15&#45;&gt;18</title>
<path fill="none" stroke="grey" stroke-width="2" d="M487.43,-585.97C520.98,-576.01 563.49,-563.41 598.61,-552.99"/>
<polygon fill="grey" stroke="grey" stroke-width="2" points="599.72,-556.31 608.31,-550.11 597.73,-549.6 599.72,-556.31"/>
</g>
<!-- 15&#45;&gt;19 -->
<g id="edge45" class="edge">
<title>15&#45;&gt;19</title>
<path fill="none" stroke="grey" stroke-width="2" d="M412.7,-585.7C404.14,-577.14 393.66,-566.66 384.3,-557.3"/>
<polygon fill="grey" stroke="grey" stroke-width="2" points="386.65,-554.7 377.1,-550.1 381.7,-559.65 386.65,-554.7"/>
</g>
<!-- 16&#45;&gt;14 -->
<g id="edge29" class="edge">
<title>16&#45;&gt;14</title>
<path fill="none" stroke="grey" stroke-width="2" d="M631.89,-585.97C666.29,-576.01 709.88,-563.41 745.9,-552.99"/>
<polygon fill="grey" stroke="grey" stroke-width="2" points="747.21,-556.25 755.85,-550.11 745.27,-549.53 747.21,-556.25"/>
</g>
<!-- 16&#45;&gt;17 -->
<g id="edge36" class="edge">
<title>16&#45;&gt;17</title>
<path fill="none" stroke="grey" stroke-width="2" d="M507.68,-587.75C504.75,-587.14 501.85,-586.56 499,-586 452.25,-576.85 329.07,-557.35 247.95,-544.72"/>
<polygon fill="grey" stroke="grey" stroke-width="2" points="248.2,-541.22 237.79,-543.14 247.13,-548.14 248.2,-541.22"/>
</g>
<!-- 16&#45;&gt;18 -->
<g id="edge42" class="edge">
<title>16&#45;&gt;18</title>
<path fill="none" stroke="grey" stroke-width="2" d="M595.99,-585.7C607.81,-576.8 622.39,-565.82 635.18,-556.2"/>
<polygon fill="grey" stroke="grey" stroke-width="2" points="637.39,-558.91 643.28,-550.1 633.18,-553.32 637.39,-558.91"/>
</g>
<!-- 16&#45;&gt;19 -->
<g id="edge48" class="edge">
<title>16&#45;&gt;19</title>
<path fill="none" stroke="grey" stroke-width="2" d="M521.17,-585.97C491.15,-576.1 453.18,-563.62 421.63,-553.25"/>
<polygon fill="grey" stroke="grey" stroke-width="2" points="422.66,-549.91 412.07,-550.11 420.47,-556.56 422.66,-549.91"/>
</g>
<!-- 17&#45;&gt;6 -->
<g id="edge15" class="edge">
<title>17&#45;&gt;6</title>
<path fill="none" stroke="grey" stroke-width="2" d="M237.84,-516.56C242.62,-515.65 247.38,-514.79 252,-514 381.73,-491.95 535.73,-474.51 614.29,-466.24"/>
<polygon fill="grey" stroke="grey" stroke-width="2" points="614.82,-469.7 624.41,-465.18 614.1,-462.74 614.82,-469.7"/>
</g>
<!-- 18&#45;&gt;6 -->
<g id="edge16" class="edge">
<title>18&#45;&gt;6</title>
<path fill="none" stroke="grey" stroke-width="2" d="M666,-513.7C666,-505.98 666,-496.71 666,-488.11"/>
<polygon fill="grey" stroke="grey" stroke-width="2" points="669.5,-488.1 666,-478.1 662.5,-488.1 669.5,-488.1"/>
</g>
<!-- 19&#45;&gt;6 -->
<g id="edge17" class="edge">
<title>19&#45;&gt;6</title>
<path fill="none" stroke="grey" stroke-width="2" d="M425.64,-515.98C482.11,-503.07 562.46,-484.69 614.42,-472.8"/>
<polygon fill="grey" stroke="grey" stroke-width="2" points="615.45,-476.15 624.41,-470.51 613.89,-469.33 615.45,-476.15"/>
</g>
</g>
</svg>
