<?xml version="1.0" encoding="UTF-8" standalone="no"?>
<!DOCTYPE svg PUBLIC "-//W3C//DTD SVG 1.1//EN"
 "http://www.w3.org/Graphics/SVG/1.1/DTD/svg11.dtd">
<!-- Generated by graphviz version 2.50.0 (0)
 -->
<!-- Title: snakemake_dag Pages: 1 -->
<svg width="992pt" height="836pt"
 viewBox="0.00 0.00 991.50 836.00" xmlns="http://www.w3.org/2000/svg" xmlns:xlink="http://www.w3.org/1999/xlink">
<g id="graph0" class="graph" transform="scale(1 1) rotate(0) translate(4 832)">
<title>snakemake_dag</title>
<polygon fill="white" stroke="transparent" points="-4,4 -4,-832 987.5,-832 987.5,4 -4,4"/>
<!-- 0 -->
<g id="node1" class="node">
<title>0</title>
<path fill="none" stroke="#a7d856" stroke-width="2" d="M948,-36C948,-36 872,-36 872,-36 866,-36 860,-30 860,-24 860,-24 860,-12 860,-12 860,-6 866,0 872,0 872,0 948,0 948,0 954,0 960,-6 960,-12 960,-12 960,-24 960,-24 960,-30 954,-36 948,-36"/>
<text text-anchor="middle" x="910" y="-15.5" font-family="sans" font-size="10.00">solve_all_networks</text>
</g>
<!-- 1 -->
<g id="node2" class="node">
<title>1</title>
<path fill="none" stroke="#56d85b" stroke-width="2" d="M938,-108C938,-108 882,-108 882,-108 876,-108 870,-102 870,-96 870,-96 870,-84 870,-84 870,-78 876,-72 882,-72 882,-72 938,-72 938,-72 944,-72 950,-78 950,-84 950,-84 950,-96 950,-96 950,-102 944,-108 938,-108"/>
<text text-anchor="middle" x="910" y="-87.5" font-family="sans" font-size="10.00">solve_network</text>
</g>
<!-- 1&#45;&gt;0 -->
<g id="edge1" class="edge">
<title>1&#45;&gt;0</title>
<path fill="none" stroke="grey" stroke-width="2" d="M910,-71.7C910,-63.98 910,-54.71 910,-46.11"/>
<polygon fill="grey" stroke="grey" stroke-width="2" points="913.5,-46.1 910,-36.1 906.5,-46.1 913.5,-46.1"/>
</g>
<!-- 2 -->
<g id="node3" class="node">
<title>2</title>
<path fill="none" stroke="#56d0d8" stroke-width="2" d="M942.5,-180C942.5,-180 877.5,-180 877.5,-180 871.5,-180 865.5,-174 865.5,-168 865.5,-168 865.5,-156 865.5,-156 865.5,-150 871.5,-144 877.5,-144 877.5,-144 942.5,-144 942.5,-144 948.5,-144 954.5,-150 954.5,-156 954.5,-156 954.5,-168 954.5,-168 954.5,-174 948.5,-180 942.5,-180"/>
<text text-anchor="middle" x="910" y="-159.5" font-family="sans" font-size="10.00">prepare_network</text>
</g>
<!-- 2&#45;&gt;1 -->
<g id="edge2" class="edge">
<title>2&#45;&gt;1</title>
<path fill="none" stroke="grey" stroke-width="2" d="M910,-143.7C910,-135.98 910,-126.71 910,-118.11"/>
<polygon fill="grey" stroke="grey" stroke-width="2" points="913.5,-118.1 910,-108.1 906.5,-118.1 913.5,-118.1"/>
</g>
<!-- 3 -->
<g id="node4" class="node">
<title>3</title>
<path fill="none" stroke="#97d856" stroke-width="2" d="M914,-252C914,-252 820,-252 820,-252 814,-252 808,-246 808,-240 808,-240 808,-228 808,-228 808,-222 814,-216 820,-216 820,-216 914,-216 914,-216 920,-216 926,-222 926,-228 926,-228 926,-240 926,-240 926,-246 920,-252 914,-252"/>
<text text-anchor="middle" x="867" y="-231.5" font-family="sans" font-size="10.00">add_extra_components</text>
</g>
<!-- 3&#45;&gt;2 -->
<g id="edge4" class="edge">
<title>3&#45;&gt;2</title>
<path fill="none" stroke="grey" stroke-width="2" d="M877.63,-215.7C882.63,-207.56 888.69,-197.69 894.21,-188.7"/>
<polygon fill="grey" stroke="grey" stroke-width="2" points="897.24,-190.46 899.49,-180.1 891.28,-186.79 897.24,-190.46"/>
</g>
<!-- 4 -->
<g id="node5" class="node">
<title>4</title>
<path fill="none" stroke="#d8ac56" stroke-width="2" d="M876,-324C876,-324 814,-324 814,-324 808,-324 802,-318 802,-312 802,-312 802,-300 802,-300 802,-294 808,-288 814,-288 814,-288 876,-288 876,-288 882,-288 888,-294 888,-300 888,-300 888,-312 888,-312 888,-318 882,-324 876,-324"/>
<text text-anchor="middle" x="845" y="-303.5" font-family="sans" font-size="10.00">cluster_network</text>
</g>
<!-- 4&#45;&gt;3 -->
<g id="edge6" class="edge">
<title>4&#45;&gt;3</title>
<path fill="none" stroke="grey" stroke-width="2" d="M850.44,-287.7C852.89,-279.9 855.84,-270.51 858.57,-261.83"/>
<polygon fill="grey" stroke="grey" stroke-width="2" points="861.96,-262.69 861.62,-252.1 855.29,-260.59 861.96,-262.69"/>
</g>
<!-- 5 -->
<g id="node6" class="node">
<title>5</title>
<path fill="none" stroke="#56d8b9" stroke-width="2" d="M802,-396C802,-396 736,-396 736,-396 730,-396 724,-390 724,-384 724,-384 724,-372 724,-372 724,-366 730,-360 736,-360 736,-360 802,-360 802,-360 808,-360 814,-366 814,-372 814,-372 814,-384 814,-384 814,-390 808,-396 802,-396"/>
<text text-anchor="middle" x="769" y="-375.5" font-family="sans" font-size="10.00">simplify_network</text>
</g>
<!-- 5&#45;&gt;4 -->
<g id="edge8" class="edge">
<title>5&#45;&gt;4</title>
<path fill="none" stroke="grey" stroke-width="2" d="M787.79,-359.7C797.17,-351.05 808.68,-340.45 818.91,-331.03"/>
<polygon fill="grey" stroke="grey" stroke-width="2" points="821.45,-333.45 826.43,-324.1 816.7,-328.3 821.45,-333.45"/>
</g>
<!-- 6 -->
<g id="node7" class="node">
<title>6</title>
<path fill="none" stroke="#d86656" stroke-width="2" d="M749,-468C749,-468 693,-468 693,-468 687,-468 681,-462 681,-456 681,-456 681,-444 681,-444 681,-438 687,-432 693,-432 693,-432 749,-432 749,-432 755,-432 761,-438 761,-444 761,-444 761,-456 761,-456 761,-462 755,-468 749,-468"/>
<text text-anchor="middle" x="721" y="-447.5" font-family="sans" font-size="10.00">add_electricity</text>
</g>
<!-- 6&#45;&gt;5 -->
<g id="edge11" class="edge">
<title>6&#45;&gt;5</title>
<path fill="none" stroke="grey" stroke-width="2" d="M732.87,-431.7C738.5,-423.47 745.35,-413.48 751.57,-404.42"/>
<polygon fill="grey" stroke="grey" stroke-width="2" points="754.5,-406.33 757.27,-396.1 748.73,-402.37 754.5,-406.33"/>
</g>
<!-- 7 -->
<g id="node8" class="node">
<title>7</title>
<path fill="none" stroke="#56d873" stroke-width="2" d="M550.5,-540C550.5,-540 451.5,-540 451.5,-540 445.5,-540 439.5,-534 439.5,-528 439.5,-528 439.5,-516 439.5,-516 439.5,-510 445.5,-504 451.5,-504 451.5,-504 550.5,-504 550.5,-504 556.5,-504 562.5,-510 562.5,-516 562.5,-516 562.5,-528 562.5,-528 562.5,-534 556.5,-540 550.5,-540"/>
<text text-anchor="middle" x="501" y="-519.5" font-family="sans" font-size="10.00">build_renewable_profiles</text>
</g>
<!-- 7&#45;&gt;6 -->
<g id="edge15" class="edge">
<title>7&#45;&gt;6</title>
<path fill="none" stroke="grey" stroke-width="2" d="M554.54,-503.97C589.96,-492.69 636.1,-478.01 670.82,-466.97"/>
<polygon fill="grey" stroke="grey" stroke-width="2" points="672.28,-470.18 680.74,-463.81 670.15,-463.51 672.28,-470.18"/>
</g>
<!-- 8 -->
<g id="node9" class="node">
<title>8</title>
<path fill="none" stroke="#56d8c9" stroke-width="2" d="M732.5,-684C732.5,-684 679.5,-684 679.5,-684 673.5,-684 667.5,-678 667.5,-672 667.5,-672 667.5,-660 667.5,-660 667.5,-654 673.5,-648 679.5,-648 679.5,-648 732.5,-648 732.5,-648 738.5,-648 744.5,-654 744.5,-660 744.5,-660 744.5,-672 744.5,-672 744.5,-678 738.5,-684 732.5,-684"/>
<text text-anchor="middle" x="706" y="-663.5" font-family="sans" font-size="10.00">base_network</text>
</g>
<!-- 8&#45;&gt;6 -->
<g id="edge17" class="edge">
<title>8&#45;&gt;6</title>
<path fill="none" stroke="grey" stroke-width="2" d="M738.52,-647.82C752.75,-638.85 768.54,-626.66 779,-612 798.43,-584.76 796.06,-573.09 801,-540 803.36,-524.18 808.57,-518.1 801,-504 794.02,-491 782.29,-480.65 769.94,-472.68"/>
<polygon fill="grey" stroke="grey" stroke-width="2" points="771.72,-469.66 761.34,-467.53 768.13,-475.67 771.72,-469.66"/>
</g>
<!-- 8&#45;&gt;7 -->
<g id="edge25" class="edge">
<title>8&#45;&gt;7</title>
<path fill="none" stroke="grey" stroke-width="2" d="M687.75,-647.77C660.76,-622.31 613.13,-577.46 611,-576 593.2,-563.8 572.16,-552.92 553.28,-544.24"/>
<polygon fill="grey" stroke="grey" stroke-width="2" points="554.47,-540.94 543.91,-540.04 551.6,-547.33 554.47,-540.94"/>
</g>
<!-- 12 -->
<g id="node13" class="node">
<title>12</title>
<path fill="none" stroke="#56d892" stroke-width="2" d="M741.5,-612C741.5,-612 670.5,-612 670.5,-612 664.5,-612 658.5,-606 658.5,-600 658.5,-600 658.5,-588 658.5,-588 658.5,-582 664.5,-576 670.5,-576 670.5,-576 741.5,-576 741.5,-576 747.5,-576 753.5,-582 753.5,-588 753.5,-588 753.5,-600 753.5,-600 753.5,-606 747.5,-612 741.5,-612"/>
<text text-anchor="middle" x="706" y="-591.5" font-family="sans" font-size="10.00">build_bus_regions</text>
</g>
<!-- 8&#45;&gt;12 -->
<g id="edge30" class="edge">
<title>8&#45;&gt;12</title>
<path fill="none" stroke="grey" stroke-width="2" d="M706,-647.7C706,-639.98 706,-630.71 706,-622.11"/>
<polygon fill="grey" stroke="grey" stroke-width="2" points="709.5,-622.1 706,-612.1 702.5,-622.1 709.5,-622.1"/>
</g>
<!-- 18 -->
<g id="node19" class="node">
<title>18</title>
<path fill="none" stroke="#568ad8" stroke-width="2" d="M779.5,-540C779.5,-540 708.5,-540 708.5,-540 702.5,-540 696.5,-534 696.5,-528 696.5,-528 696.5,-516 696.5,-516 696.5,-510 702.5,-504 708.5,-504 708.5,-504 779.5,-504 779.5,-504 785.5,-504 791.5,-510 791.5,-516 791.5,-516 791.5,-528 791.5,-528 791.5,-534 785.5,-540 779.5,-540"/>
<text text-anchor="middle" x="744" y="-519.5" font-family="sans" font-size="10.00">build_powerplants</text>
</g>
<!-- 8&#45;&gt;18 -->
<g id="edge36" class="edge">
<title>8&#45;&gt;18</title>
<path fill="none" stroke="grey" stroke-width="2" d="M732.58,-647.91C744.24,-638.81 756.69,-626.49 763,-612 771.73,-591.96 765.47,-567.58 757.88,-549.41"/>
<polygon fill="grey" stroke="grey" stroke-width="2" points="760.93,-547.67 753.61,-540.02 754.56,-550.57 760.93,-547.67"/>
</g>
<!-- 9 -->
<g id="node10" class="node">
<title>9</title>
<path fill="none" stroke="#d8d356" stroke-width="2" d="M507,-756C507,-756 457,-756 457,-756 451,-756 445,-750 445,-744 445,-744 445,-732 445,-732 445,-726 451,-720 457,-720 457,-720 507,-720 507,-720 513,-720 519,-726 519,-732 519,-732 519,-744 519,-744 519,-750 513,-756 507,-756"/>
<text text-anchor="middle" x="482" y="-735.5" font-family="sans" font-size="10.00">build_shapes</text>
</g>
<!-- 9&#45;&gt;6 -->
<g id="edge13" class="edge">
<title>9&#45;&gt;6</title>
<path fill="none" stroke="grey" stroke-width="2" d="M444.75,-737.97C391.76,-737.55 293.64,-729.94 227,-684 184.05,-654.39 152.72,-619.85 181,-576 234.27,-493.39 546.42,-463.03 670.33,-454.13"/>
<polygon fill="grey" stroke="grey" stroke-width="2" points="670.95,-457.59 680.68,-453.4 670.46,-450.61 670.95,-457.59"/>
</g>
<!-- 9&#45;&gt;7 -->
<g id="edge21" class="edge">
<title>9&#45;&gt;7</title>
<path fill="none" stroke="grey" stroke-width="2" d="M480.1,-719.91C477.22,-690.33 473,-627.77 482,-576 483.52,-567.24 486.36,-558.01 489.39,-549.75"/>
<polygon fill="grey" stroke="grey" stroke-width="2" points="492.72,-550.84 493.11,-540.25 486.21,-548.29 492.72,-550.84"/>
</g>
<!-- 9&#45;&gt;8 -->
<g id="edge28" class="edge">
<title>9&#45;&gt;8</title>
<path fill="none" stroke="grey" stroke-width="2" d="M519.24,-725.36C557.13,-713.52 616.03,-695.11 657.54,-682.14"/>
<polygon fill="grey" stroke="grey" stroke-width="2" points="658.66,-685.46 667.17,-679.14 656.58,-678.78 658.66,-685.46"/>
</g>
<!-- 9&#45;&gt;12 -->
<g id="edge31" class="edge">
<title>9&#45;&gt;12</title>
<path fill="none" stroke="grey" stroke-width="2" d="M509.02,-719.87C549.38,-694.28 625.47,-646.05 670.34,-617.6"/>
<polygon fill="grey" stroke="grey" stroke-width="2" points="672.31,-620.5 678.88,-612.19 668.56,-614.59 672.31,-620.5"/>
</g>
<!-- 16 -->
<g id="node17" class="node">
<title>16</title>
<path fill="none" stroke="#56b1d8" stroke-width="2" d="M276,-612C276,-612 202,-612 202,-612 196,-612 190,-606 190,-600 190,-600 190,-588 190,-588 190,-582 196,-576 202,-576 202,-576 276,-576 276,-576 282,-576 288,-582 288,-588 288,-588 288,-600 288,-600 288,-606 282,-612 276,-612"/>
<text text-anchor="middle" x="239" y="-591.5" font-family="sans" font-size="10.00">build_hydro_profile</text>
</g>
<!-- 9&#45;&gt;16 -->
<g id="edge34" class="edge">
<title>9&#45;&gt;16</title>
<path fill="none" stroke="grey" stroke-width="2" d="M444.55,-734.06C384.19,-728.47 269.55,-714.09 244,-684 229.8,-667.28 229.79,-641.79 232.62,-622.36"/>
<polygon fill="grey" stroke="grey" stroke-width="2" points="236.1,-622.75 234.4,-612.29 229.21,-621.53 236.1,-622.75"/>
</g>
<!-- 10 -->
<g id="node11" class="node">
<title>10</title>
<path fill="none" stroke="#80d856" stroke-width="2" d="M520.5,-828C520.5,-828 443.5,-828 443.5,-828 437.5,-828 431.5,-822 431.5,-816 431.5,-816 431.5,-804 431.5,-804 431.5,-798 437.5,-792 443.5,-792 443.5,-792 520.5,-792 520.5,-792 526.5,-792 532.5,-798 532.5,-804 532.5,-804 532.5,-816 532.5,-816 532.5,-822 526.5,-828 520.5,-828"/>
<text text-anchor="middle" x="482" y="-807.5" font-family="sans" font-size="10.00">retrieve_databundle</text>
</g>
<!-- 10&#45;&gt;6 -->
<g id="edge20" class="edge">
<title>10&#45;&gt;6</title>
<path fill="none" stroke="grey" stroke-width="2" d="M532.71,-800.8C635.34,-782.77 858,-735.73 858,-667 858,-667 858,-667 858,-593 858,-549.26 845.86,-535.96 816,-504 803.39,-490.5 786.55,-479.58 770.55,-471.24"/>
<polygon fill="grey" stroke="grey" stroke-width="2" points="771.78,-467.94 761.27,-466.63 768.66,-474.21 771.78,-467.94"/>
</g>
<!-- 10&#45;&gt;7 -->
<g id="edge27" class="edge">
<title>10&#45;&gt;7</title>
<path fill="none" stroke="grey" stroke-width="2" d="M431.23,-794.41C325.01,-761.46 95.95,-676.3 181,-576 212.19,-539.22 344.9,-527.93 429.32,-524.49"/>
<polygon fill="grey" stroke="grey" stroke-width="2" points="429.5,-527.98 439.36,-524.1 429.23,-520.99 429.5,-527.98"/>
</g>
<!-- 10&#45;&gt;9 -->
<g id="edge29" class="edge">
<title>10&#45;&gt;9</title>
<path fill="none" stroke="grey" stroke-width="2" d="M482,-791.7C482,-783.98 482,-774.71 482,-766.11"/>
<polygon fill="grey" stroke="grey" stroke-width="2" points="485.5,-766.1 482,-756.1 478.5,-766.1 485.5,-766.1"/>
</g>
<!-- 11 -->
<g id="node12" class="node">
<title>11</title>
<path fill="none" stroke="#56d882" stroke-width="2" d="M589.5,-612C589.5,-612 502.5,-612 502.5,-612 496.5,-612 490.5,-606 490.5,-600 490.5,-600 490.5,-588 490.5,-588 490.5,-582 496.5,-576 502.5,-576 502.5,-576 589.5,-576 589.5,-576 595.5,-576 601.5,-582 601.5,-588 601.5,-588 601.5,-600 601.5,-600 601.5,-606 595.5,-612 589.5,-612"/>
<text text-anchor="middle" x="546" y="-591.5" font-family="sans" font-size="10.00">retrieve_natura_raster</text>
</g>
<!-- 11&#45;&gt;7 -->
<g id="edge23" class="edge">
<title>11&#45;&gt;7</title>
<path fill="none" stroke="grey" stroke-width="2" d="M534.88,-575.7C529.64,-567.56 523.3,-557.69 517.52,-548.7"/>
<polygon fill="grey" stroke="grey" stroke-width="2" points="520.35,-546.62 512,-540.1 514.46,-550.41 520.35,-546.62"/>
</g>
<!-- 12&#45;&gt;5 -->
<g id="edge10" class="edge">
<title>12&#45;&gt;5</title>
<path fill="none" stroke="grey" stroke-width="2" d="M694.86,-575.72C676.45,-544.76 644.31,-478.68 672,-432 681.58,-415.85 698.02,-404.3 714.66,-396.19"/>
<polygon fill="grey" stroke="grey" stroke-width="2" points="716.21,-399.33 723.89,-392.04 713.33,-392.95 716.21,-399.33"/>
</g>
<!-- 12&#45;&gt;6 -->
<g id="edge16" class="edge">
<title>12&#45;&gt;6</title>
<path fill="none" stroke="grey" stroke-width="2" d="M697.66,-575.75C690.05,-557.67 680.98,-528.55 688,-504 690.71,-494.51 695.67,-485.06 700.93,-476.83"/>
<polygon fill="grey" stroke="grey" stroke-width="2" points="703.92,-478.67 706.67,-468.43 698.14,-474.72 703.92,-478.67"/>
</g>
<!-- 12&#45;&gt;7 -->
<g id="edge24" class="edge">
<title>12&#45;&gt;7</title>
<path fill="none" stroke="grey" stroke-width="2" d="M658.45,-576.76C629.32,-566.82 591.77,-553.99 560.65,-543.37"/>
<polygon fill="grey" stroke="grey" stroke-width="2" points="561.38,-539.92 550.79,-540 559.12,-546.54 561.38,-539.92"/>
</g>
<!-- 13 -->
<g id="node14" class="node">
<title>13</title>
<path fill="none" stroke="#ced856" stroke-width="2" d="M321.5,-684C321.5,-684 264.5,-684 264.5,-684 258.5,-684 252.5,-678 252.5,-672 252.5,-672 252.5,-660 252.5,-660 252.5,-654 258.5,-648 264.5,-648 264.5,-648 321.5,-648 321.5,-648 327.5,-648 333.5,-654 333.5,-660 333.5,-660 333.5,-672 333.5,-672 333.5,-678 327.5,-684 321.5,-684"/>
<text text-anchor="middle" x="293" y="-663.5" font-family="sans" font-size="10.00">retrieve_cutout</text>
</g>
<!-- 13&#45;&gt;7 -->
<g id="edge22" class="edge">
<title>13&#45;&gt;7</title>
<path fill="none" stroke="grey" stroke-width="2" d="M296.73,-647.74C301.93,-627.72 313.28,-595.03 335,-576 361.29,-552.96 397.67,-539.93 429.67,-532.55"/>
<polygon fill="grey" stroke="grey" stroke-width="2" points="430.41,-535.97 439.44,-530.44 428.93,-529.13 430.41,-535.97"/>
</g>
<!-- 14 -->
<g id="node15" class="node">
<title>14</title>
<path fill="none" stroke="#d89c56" stroke-width="2" d="M422,-612C422,-612 356,-612 356,-612 350,-612 344,-606 344,-600 344,-600 344,-588 344,-588 344,-582 350,-576 356,-576 356,-576 422,-576 422,-576 428,-576 434,-582 434,-588 434,-588 434,-600 434,-600 434,-606 428,-612 422,-612"/>
<text text-anchor="middle" x="389" y="-591.5" font-family="sans" font-size="10.00">build_ship_raster</text>
</g>
<!-- 13&#45;&gt;14 -->
<g id="edge32" class="edge">
<title>13&#45;&gt;14</title>
<path fill="none" stroke="grey" stroke-width="2" d="M316.73,-647.7C328.94,-638.8 343.99,-627.82 357.18,-618.2"/>
<polygon fill="grey" stroke="grey" stroke-width="2" points="359.52,-620.82 365.54,-612.1 355.4,-615.17 359.52,-620.82"/>
</g>
<!-- 13&#45;&gt;16 -->
<g id="edge35" class="edge">
<title>13&#45;&gt;16</title>
<path fill="none" stroke="grey" stroke-width="2" d="M279.65,-647.7C273.24,-639.39 265.44,-629.28 258.39,-620.14"/>
<polygon fill="grey" stroke="grey" stroke-width="2" points="261.07,-617.88 252.19,-612.1 255.53,-622.16 261.07,-617.88"/>
</g>
<!-- 14&#45;&gt;7 -->
<g id="edge26" class="edge">
<title>14&#45;&gt;7</title>
<path fill="none" stroke="grey" stroke-width="2" d="M416.4,-575.88C430.91,-566.81 448.92,-555.55 464.59,-545.76"/>
<polygon fill="grey" stroke="grey" stroke-width="2" points="466.87,-548.46 473.5,-540.19 463.16,-542.52 466.87,-548.46"/>
</g>
<!-- 15 -->
<g id="node16" class="node">
<title>15</title>
<path fill="none" stroke="#b6d856" stroke-width="2" d="M442,-684C442,-684 364,-684 364,-684 358,-684 352,-678 352,-672 352,-672 352,-660 352,-660 352,-654 358,-648 364,-648 364,-648 442,-648 442,-648 448,-648 454,-654 454,-660 454,-660 454,-672 454,-672 454,-678 448,-684 442,-684"/>
<text text-anchor="middle" x="403" y="-663.5" font-family="sans" font-size="10.00">retrieve_ship_raster</text>
</g>
<!-- 15&#45;&gt;14 -->
<g id="edge33" class="edge">
<title>15&#45;&gt;14</title>
<path fill="none" stroke="grey" stroke-width="2" d="M399.54,-647.7C398,-639.98 396.14,-630.71 394.42,-622.11"/>
<polygon fill="grey" stroke="grey" stroke-width="2" points="397.81,-621.22 392.42,-612.1 390.95,-622.6 397.81,-621.22"/>
</g>
<!-- 16&#45;&gt;6 -->
<g id="edge14" class="edge">
<title>16&#45;&gt;6</title>
<path fill="none" stroke="grey" stroke-width="2" d="M269.62,-575.84C306.72,-555.75 371.64,-522.84 431,-504 512.91,-477.99 612.14,-463.3 670.72,-456.27"/>
<polygon fill="grey" stroke="grey" stroke-width="2" points="671.3,-459.73 680.82,-455.08 670.48,-452.77 671.3,-459.73"/>
</g>
<!-- 17 -->
<g id="node18" class="node">
<title>17</title>
<path fill="none" stroke="#566bd8" stroke-width="2" d="M971.5,-540C971.5,-540 898.5,-540 898.5,-540 892.5,-540 886.5,-534 886.5,-528 886.5,-528 886.5,-516 886.5,-516 886.5,-510 892.5,-504 898.5,-504 898.5,-504 971.5,-504 971.5,-504 977.5,-504 983.5,-510 983.5,-516 983.5,-516 983.5,-528 983.5,-528 983.5,-534 977.5,-540 971.5,-540"/>
<text text-anchor="middle" x="935" y="-519.5" font-family="sans" font-size="10.00">retrieve_cost_data</text>
</g>
<!-- 17&#45;&gt;2 -->
<g id="edge3" class="edge">
<title>17&#45;&gt;2</title>
<path fill="none" stroke="grey" stroke-width="2" d="M938.84,-503.61C944.4,-476.94 954,-424.27 954,-379 954,-379 954,-379 954,-305 954,-264.55 947.94,-254.32 935,-216 932.01,-207.13 927.94,-197.79 923.95,-189.47"/>
<polygon fill="grey" stroke="grey" stroke-width="2" points="926.95,-187.65 919.38,-180.25 920.68,-190.76 926.95,-187.65"/>
</g>
<!-- 17&#45;&gt;3 -->
<g id="edge5" class="edge">
<title>17&#45;&gt;3</title>
<path fill="none" stroke="grey" stroke-width="2" d="M934.26,-503.82C932.14,-464.53 924.28,-365.52 897,-288 893.79,-278.87 889.04,-269.49 884.26,-261.21"/>
<polygon fill="grey" stroke="grey" stroke-width="2" points="887.1,-259.15 878.93,-252.4 881.11,-262.77 887.1,-259.15"/>
</g>
<!-- 17&#45;&gt;4 -->
<g id="edge7" class="edge">
<title>17&#45;&gt;4</title>
<path fill="none" stroke="grey" stroke-width="2" d="M923.01,-503.88C916.27,-493.75 908.02,-480.5 902,-468 880.18,-422.68 862.25,-366.72 852.64,-334.13"/>
<polygon fill="grey" stroke="grey" stroke-width="2" points="855.96,-333.04 849.81,-324.41 849.24,-334.99 855.96,-333.04"/>
</g>
<!-- 17&#45;&gt;5 -->
<g id="edge9" class="edge">
<title>17&#45;&gt;5</title>
<path fill="none" stroke="grey" stroke-width="2" d="M906.58,-503.94C891.08,-494.15 871.87,-481.2 856,-468 832.02,-448.05 807.41,-422.3 790.52,-403.63"/>
<polygon fill="grey" stroke="grey" stroke-width="2" points="793.05,-401.21 783.77,-396.1 787.84,-405.88 793.05,-401.21"/>
</g>
<!-- 17&#45;&gt;6 -->
<g id="edge19" class="edge">
<title>17&#45;&gt;6</title>
<path fill="none" stroke="grey" stroke-width="2" d="M886.44,-505.12C851.98,-493.84 805.86,-478.76 771.07,-467.38"/>
<polygon fill="grey" stroke="grey" stroke-width="2" points="771.71,-463.91 761.12,-464.12 769.54,-470.56 771.71,-463.91"/>
</g>
<!-- 18&#45;&gt;6 -->
<g id="edge18" class="edge">
<title>18&#45;&gt;6</title>
<path fill="none" stroke="grey" stroke-width="2" d="M738.31,-503.7C735.75,-495.9 732.67,-486.51 729.82,-477.83"/>
<polygon fill="grey" stroke="grey" stroke-width="2" points="733.07,-476.51 726.62,-468.1 726.42,-478.7 733.07,-476.51"/>
</g>
<!-- 19 -->
<g id="node20" class="node">
<title>19</title>
<path fill="none" stroke="#56c1d8" stroke-width="2" d="M81,-540C81,-540 21,-540 21,-540 15,-540 9,-534 9,-528 9,-528 9,-516 9,-516 9,-510 15,-504 21,-504 21,-504 81,-504 81,-504 87,-504 93,-510 93,-516 93,-516 93,-528 93,-528 93,-534 87,-540 81,-540"/>
<text text-anchor="middle" x="51" y="-519.5" font-family="sans" font-size="10.00">build_load_data</text>
</g>
<!-- 19&#45;&gt;6 -->
<g id="edge12" class="edge">
<title>19&#45;&gt;6</title>
<path fill="none" stroke="grey" stroke-width="2" d="M93.3,-507.75C98.88,-506.31 104.55,-505.01 110,-504 315.71,-465.82 565.61,-455.02 670.66,-452.07"/>
<polygon fill="grey" stroke="grey" stroke-width="2" points="671.06,-455.56 680.97,-451.79 670.88,-448.56 671.06,-455.56"/>
</g>
<!-- 20 -->
<g id="node21" class="node">
<title>20</title>
<path fill="none" stroke="#70d856" stroke-width="2" d="M84,-612C84,-612 12,-612 12,-612 6,-612 0,-606 0,-600 0,-600 0,-588 0,-588 0,-582 6,-576 12,-576 12,-576 84,-576 84,-576 90,-576 96,-582 96,-588 96,-588 96,-600 96,-600 96,-606 90,-612 84,-612"/>
<text text-anchor="middle" x="48" y="-591.5" font-family="sans" font-size="10.00">retrieve_load_data</text>
</g>
<!-- 20&#45;&gt;19 -->
<g id="edge37" class="edge">
<title>20&#45;&gt;19</title>
<path fill="none" stroke="grey" stroke-width="2" d="M48.74,-575.7C49.07,-567.98 49.47,-558.71 49.84,-550.11"/>
<polygon fill="grey" stroke="grey" stroke-width="2" points="53.34,-550.25 50.27,-540.1 46.34,-549.95 53.34,-550.25"/>
</g>
</g>
</svg>
